<?xml version="1.0" encoding="utf-8"?>
<!-- Generator: Adobe Illustrator 27.5.0, SVG Export Plug-In . SVG Version: 6.00 Build 0)  -->
<svg version="1.1" xmlns="http://www.w3.org/2000/svg" xmlns:xlink="http://www.w3.org/1999/xlink" x="0px" y="0px"
	 viewBox="0 0 820 500" style="enable-background:new 0 0 820 500;" xml:space="preserve">
<g id="BACKGROUND">
</g>
<g id="OBJECTS">
	<g>
		<g>
			<path style="fill:#D1642D;" d="M395.017,313.862c0,0-46.288,32.216-68.706,63.71l12.856,17.09c0,0,55.22-42.285,76.426-48.584
				L395.017,313.862z"/>
			<g>
				<path style="fill:#EAEAEB;" d="M344.998,394.659c-0.099,0.397-12.188,8.47-16.493,11.331c-0.935,0.623-1.501,0.999-1.501,0.999
					s-37.703-25.289-33.241-32.002c0.113-0.17,0.241-0.326,0.389-0.474c5.46-5.786,32.158,3.059,32.158,3.059
					s5.588-4.688,6.324-4.893c0.729-0.212,4.511,5.453,4.716,6.607c0.212,1.154-6.338,4.539-6.338,4.539s5.566,5.29,6.834,6.671
					C339.113,391.876,345.111,394.184,344.998,394.659z"/>
				<path style="fill:#293753;" d="M328.505,405.989c-0.935,0.623-1.501,0.999-1.501,0.999s-37.703-25.289-33.241-32.002
					c0.113-0.17,0.241-0.326,0.389-0.474C302.373,381.678,328.505,405.989,328.505,405.989z"/>
				<path style="fill:#293753;" d="M295.656,378.751c0,0-2.951,4.188-2.808,5.092c0.143,0.904,4.854-1.761,4.854-1.761
					L295.656,378.751z"/>
				<path style="fill:#293753;" d="M300.558,383.51c0,0-2.665,4.093-2.284,4.712c0.381,0.619,4.093-1.999,4.093-1.999
					L300.558,383.51z"/>
				<path style="fill:#293753;" d="M305.812,388.762c0,0-2.764,4.467-2.261,4.802c0.503,0.335,4.411-1.871,4.411-1.871
					L305.812,388.762z"/>
				<path style="fill:#293753;" d="M312.258,393.809c0,0-1.851,3.938-1.616,4.375c0.236,0.437,3.837-1.616,3.837-1.616
					L312.258,393.809z"/>
				<path style="fill:#293753;" d="M318.568,399.699c0,0-2.102,3.284-1.872,3.941c0.23,0.657,4.401-1.346,4.401-1.346
					L318.568,399.699z"/>
				<path style="fill:#293753;" d="M324.656,404.331c0,0-2.306,3.343-1.873,4.092c0.432,0.749,4.15-2.248,4.15-2.248
					L324.656,404.331z"/>
				<g>
					<g>
						<path style="fill:#4271E9;" d="M339.909,394.99c-6.746-1.876-13.37,1.081-18.957,4.687c-0.573,0.37-0.04,1.289,0.536,0.917
							c5.342-3.449,11.671-6.379,18.138-4.58C340.286,396.198,340.568,395.173,339.909,394.99L339.909,394.99z"/>
					</g>
				</g>
				<g>
					<g>
						<path style="fill:#4271E9;" d="M330.974,383.296c-4.644-0.626-9.243-1.524-13.82-2.521c-2.211-0.482-4.443-0.93-6.636-1.49
							c-1.052-0.268-1.817-0.704-2.51-1.538c-0.709-0.854-2.098-2.491-0.972-3.509c0.508-0.46-0.245-1.209-0.751-0.751
							c-1.555,1.406-0.309,3.363,0.702,4.669c1.579,2.041,3.77,2.277,6.164,2.817c5.809,1.311,11.637,2.551,17.542,3.348
							C331.36,384.411,331.649,383.387,330.974,383.296L330.974,383.296z"/>
					</g>
				</g>
				<g>
					<g>
						<path style="fill:#293753;" d="M312.928,374.901c1.095,2.408,1.824,4.971,2.193,7.589c0.04,0.286,0.402,0.437,0.653,0.371
							c0.306-0.081,0.411-0.371,0.371-0.653c-0.382-2.716-1.165-5.347-2.3-7.843C313.563,373.744,312.647,374.283,312.928,374.901
							L312.928,374.901z"/>
					</g>
				</g>
				<g>
					<g>
						<path style="fill:#293753;" d="M319.132,376.19c1.417,2.152,2.247,4.639,2.377,7.214c0.034,0.68,1.097,0.684,1.062,0
							c-0.139-2.758-1.002-5.443-2.522-7.75C319.674,375.085,318.754,375.617,319.132,376.19L319.132,376.19z"/>
					</g>
				</g>
			</g>
			<path style="fill:#1F293E;" d="M423.803,293.759c0,0-29.042,17.561-34.398,21.203l20.356,36.854l28.069-15.427l19.284-49.068
				L423.803,293.759z"/>
		</g>
		<g>
			<g>
				<path style="fill:#EAEAEB;" d="M517.544,356.155c-2.897,1.707-6.168,0.177-6.997-0.602c-1.579-1.501-10.58-21.422-10.58-21.422
					l-2.472-19.113c0,0,7.039-5.389,10.785-7.068c0.843-0.389,1.522-0.574,1.912-0.467c2.096,0.588,11.812,11.232,12.202,32.54
					C522.579,350.242,520.221,354.576,517.544,356.155z"/>
				<path style="fill:#293753;" d="M517.544,356.155c0.984-1.976,1.834-4.256,2.259-6.728c1.416-8.208-1.338-19.546-4.086-29.46
					c-1.792-6.466-5.248-10.198-7.436-12.018c0.843-0.389,1.522-0.574,1.912-0.467c2.096,0.588,11.812,11.232,12.202,32.54
					C522.579,350.242,520.221,354.576,517.544,356.155z"/>
				<path style="fill:#293753;" d="M513.166,311.344c0,0,5.617-0.729,6.201,0c0.584,0.73-3.721,3.673-3.721,3.673L513.166,311.344z"
					/>
				<path style="fill:#293753;" d="M516.887,319.515c0,0,4.689-1.167,5.518-0.438c0.829,0.729-3.913,3.429-3.913,3.429
					L516.887,319.515z"/>
				<path style="fill:#293753;" d="M518.856,327.832c0,0,4.961-1.751,5.617-0.73c0.657,1.021-4.231,4.702-4.231,4.702
					L518.856,327.832z"/>
				<path style="fill:#293753;" d="M520.867,336.586c0,0,5.844-1,6.001,0c0.158,1-5.528,3.79-5.528,3.79L520.867,336.586z"/>
				<path style="fill:#293753;" d="M521.235,345.799c0.158-0.158,4.001-1.737,4.633-0.79c0.632,0.948-4.633,3.422-4.633,3.422
					V345.799z"/>
				<g>
					<g>
						<path style="fill:#4271E9;" d="M512.409,311.651c-2.716,3.438-6.537,5.858-10.812,6.827c-0.666,0.151-0.384,1.175,0.282,1.024
							c4.432-1.004,8.463-3.533,11.281-7.1C513.579,311.872,512.833,311.115,512.409,311.651L512.409,311.651z"/>
					</g>
				</g>
				<g>
					<g>
						<path style="fill:#4271E9;" d="M506.85,332.543c0.831,1.569,1.635,3.151,2.405,4.751c0.78,1.62,1.621,3.257,2.206,4.96
							c0.516,1.5,0.774,3.22-0.002,4.683c-0.8,1.51-2.539,1.968-4.122,1.652c-0.668-0.133-0.953,0.89-0.282,1.024
							c1.564,0.312,3.261,0.08,4.473-1.035c1.268-1.167,1.635-3.018,1.426-4.667c-0.255-2.008-1.244-3.883-2.089-5.695
							c-0.978-2.096-2.013-4.165-3.096-6.209C507.447,331.403,506.53,331.939,506.85,332.543L506.85,332.543z"/>
					</g>
				</g>
				<g>
					<g>
						<path style="fill:#293753;" d="M510.473,335.567c-2.822,0.801-5.221,2.516-7.511,4.288c-0.229,0.177-0.183,0.565,0,0.751
							c0.221,0.226,0.525,0.175,0.751,0c2.141-1.657,4.407-3.267,7.043-4.015C511.412,336.405,511.133,335.379,510.473,335.567
							L510.473,335.567z"/>
					</g>
				</g>
				<g>
					<g>
						<path style="fill:#293753;" d="M512.459,340.359c-3.038,0.076-5.61,1.807-7.767,3.804c-0.503,0.466,0.25,1.215,0.751,0.751
							c1.943-1.8,4.271-3.425,7.016-3.493C513.141,341.404,513.144,340.342,512.459,340.359L512.459,340.359z"/>
					</g>
				</g>
			</g>
			<g>
				<path style="fill:#D1642D;" d="M428.825,340.022c0,0-17.384,46.621,8.518,53.748c25.903,7.128,44.505-30.423,56.848-45.026
					c12.343-14.603,13.038-16.689,13.038-16.689s-4.694-17.211-9.735-17.037l-40.38,30.597L428.825,340.022z"/>
				<g>
					<g>
						<path style="fill:#B94409;" d="M469.28,349.288c-2.094,8.126-6.49,15.326-10.853,22.404c-0.36,0.584,0.559,1.118,0.917,0.536
							c4.41-7.154,8.843-14.443,10.96-22.657C470.474,348.908,469.45,348.625,469.28,349.288L469.28,349.288z"/>
					</g>
				</g>
			</g>
			<path style="fill:#293753;" d="M441.974,288.011c0,0-21.187,37.897-21.037,65.947h47.894c0,0,18.817-49.365,16.421-72.422
				L441.974,288.011z"/>
		</g>
		<g>
			<path style="fill:#D1642D;" d="M477.776,187.594l20.18-7.147l-11.969-36.006c0,0-10.909-6.143-10.846-9.302
				c0.063-3.159,1.453-4.613,1.453-4.613s-1.643-6.129,1.643-9.225c3.286-3.096,11.815-4.739,16.112-4.739
				c4.297,0,7.077,9.667,7.329,11.184c0.253,1.516,0,7.14,0,7.14s22.385,50.153,22.385,54.361s-30.712,19.732-30.712,19.732
				L477.776,187.594z"/>
			<g>
				<g>
					<path style="fill:#B94409;" d="M477.119,130.942c1.653-1.761,3.305-3.522,4.958-5.283c1.47-1.566,3.059-3.593,5.195-4.245
						c0.43-0.131,0.977-0.258,1.404-0.056c0.821,0.391,0.528,1.393,0.334,2.063c-0.32,1.106-0.815,2.155-1.399,3.144
						c-1.152,1.948-2.644,3.661-4.131,5.357c-0.357,0.408-0.01,0.991,0.517,0.888c2.611-0.512,5.288,0.538,7.064,2.479
						c1.821,1.991,2.564,4.715,2.573,7.363c0.002,0.683,1.065,0.685,1.062,0c-0.011-3.04-0.939-6.153-3.116-8.358
						c-2.048-2.074-4.997-3.071-7.866-2.508c0.172,0.296,0.345,0.592,0.517,0.888c1.853-2.114,3.752-4.281,4.975-6.837
						c0.718-1.502,2.156-4.802-0.299-5.532c-2.2-0.654-4.504,1.432-5.909,2.844c-2.272,2.283-4.425,4.694-6.629,7.043
						C475.901,130.689,476.65,131.441,477.119,130.942L477.119,130.942z"/>
				</g>
			</g>
			<g>
				<g>
					<path style="fill:#B94409;" d="M487.994,132.774c1.966,0.09,3.792-1.322,4.184-3.254c-0.26,0.106-0.52,0.212-0.78,0.318
						c1.946,1.177,4.537,0.577,5.827-1.27c-0.2,0.081-0.4,0.163-0.6,0.244c1.917,0.589,4.081-0.064,5.315-1.655
						c0.414-0.534-0.333-1.291-0.751-0.751c-1.016,1.31-2.689,1.872-4.281,1.382c-0.239-0.073-0.467,0.053-0.6,0.244
						c-0.964,1.381-2.95,1.75-4.374,0.889c-0.278-0.168-0.712-0.019-0.78,0.317c-0.303,1.492-1.635,2.544-3.16,2.474
						C487.311,131.68,487.313,132.743,487.994,132.774L487.994,132.774z"/>
				</g>
			</g>
			<g>
				<g>
					<path style="fill:#B94409;" d="M492.728,117.04c2.667,3.041,4.016,7.067,3.772,11.099c-0.041,0.683,1.021,0.68,1.062,0
						c0.261-4.314-1.237-8.605-4.083-11.85C493.027,115.774,492.278,116.528,492.728,117.04L492.728,117.04z"/>
				</g>
			</g>
			<g>
				<g>
					<path style="fill:#B94409;" d="M486.917,118.04c0.172,0.163,0.337,0.333,0.493,0.512c0.04,0.046,0.079,0.092,0.118,0.14
						c0.017,0.021,0.034,0.042,0.051,0.063c0.001,0.002,0.082,0.103,0.034,0.042c-0.043-0.055,0.012,0.017,0.02,0.027
						c0.02,0.027,0.04,0.054,0.06,0.082c0.036,0.049,0.071,0.099,0.106,0.149c0.134,0.195,0.259,0.397,0.372,0.605
						c0.055,0.101,0.108,0.203,0.158,0.307c0.027,0.055,0.052,0.11,0.077,0.166c0.014,0.031,0.027,0.062,0.041,0.093
						c0.032,0.071-0.049-0.119,0.002,0.004c0.055,0.134,0.114,0.242,0.244,0.317c0.114,0.067,0.282,0.095,0.409,0.054
						c0.246-0.08,0.484-0.378,0.371-0.653c-0.413-1.003-1.013-1.911-1.805-2.657c-0.202-0.19-0.553-0.216-0.751,0
						C486.727,117.496,486.701,117.837,486.917,118.04L486.917,118.04z"/>
				</g>
			</g>
			<g>
				<g>
					<path style="fill:#B94409;" d="M489.313,123.593c0.848,1.966,1.501,4.014,1.97,6.103c0.15,0.667,1.174,0.385,1.024-0.282
						c-0.49-2.182-1.191-4.304-2.077-6.357c-0.114-0.263-0.501-0.323-0.727-0.19C489.232,123.026,489.199,123.329,489.313,123.593
						L489.313,123.593z"/>
				</g>
			</g>
			<g>
				<g>
					<path style="fill:#B94409;" d="M478.703,121.063c0.387,1.648,0.832,3.337,1.994,4.625c0.192,0.213,0.556,0.196,0.751,0
						c0.212-0.212,0.193-0.537,0-0.751c-1.027-1.139-1.38-2.705-1.721-4.156c-0.066-0.279-0.384-0.445-0.653-0.371
						C478.788,120.488,478.638,120.782,478.703,121.063L478.703,121.063z"/>
				</g>
			</g>
		</g>
		<path style="fill:#77ADFC;" d="M495.243,211.632l-20.714,10.361c8.087,19.255,10.722,59.543,10.722,59.543
			c-25.459,12.053-61.448,12.223-61.448,12.223s-6.281-20.034-13.746-35.989c-7.471-15.955-12.988-42.639-12.988-42.639
			c14.029-9.695,70.243-25.919,88.918-31.145c3.817-1.069,6.069-1.678,6.069-1.678l8.661,26.592L495.243,211.632z"/>
		<g>
			<polygon style="fill:#D1642D;" points="435.382,202.129 422.387,213.247 420.291,202.015 418.896,194.565 426.586,189.898 
				432.089,186.556 432.655,189.247 			"/>
			<path style="fill:#B94409;" d="M432.655,189.247c0,0-3.732,9.56-12.365,12.768l-1.395-7.45l7.691-4.667L432.655,189.247z"/>
			<polygon style="fill:#381120;" points="432.086,186.553 433.737,194.363 437.837,184.65 			"/>
		</g>
		<g>
			<path style="fill:#D1642D;" d="M433.473,188.199c0,0-4.673,6.95-14.499,9.227c-9.826,2.277-17.734-5.153-16.776-16.656
				c0.959-11.503,5.991-23.246,19.292-23.486C434.791,157.044,443.538,170.105,433.473,188.199z"/>
			<path style="fill:#B94409;" d="M427.916,182.314c0,2.675-2.168,4.843-4.843,4.843c-2.675,0-4.843-2.168-4.843-4.843
				c0-2.675,2.168-4.843,4.843-4.843C425.747,177.471,427.916,179.639,427.916,182.314z"/>
			<path style="fill:#381120;" d="M430.528,180.889c0,0-4.077-6.346-0.441-13.462l4.886-6.265c0,0,3.391,1.392,3.468,1.702
				c0.077,0.309,2.166,9.532,0,14.087L430.528,180.889z"/>
			<g>
				<path style="fill:#D1642D;" d="M433.802,187.594l-3.274-6.705c0,0,1.298-7.276,7.31-7.583
					C443.85,172.998,444.25,184.871,433.802,187.594z"/>
				<g>
					<g>
						<path style="fill:#B94409;" d="M437.147,176.438c-2.526,0.863-4.512,3.093-5.003,5.729c-0.053,0.282,0.078,0.573,0.371,0.653
							c0.259,0.071,0.601-0.088,0.653-0.371c0.423-2.266,2.069-4.238,4.262-4.987C438.073,177.242,437.797,176.216,437.147,176.438
							L437.147,176.438z"/>
					</g>
				</g>
			</g>
			<path style="fill:#FFB550;" d="M412.555,166.309c-0.191,0.064-3.766,1.34-2.426,3.638c1.34,2.298,14.107,0.319,20.682-2.362
				c6.575-2.681,7.629-4.722,7.629-4.722s0.538-2.555-1.152-6.321c-1.69-3.766-4.754-4.851-6.35-3.766
				c-1.596,1.085,0.511,4.504,0.511,4.504s-2.936-5.653-9.128-7.824c-6.192-2.17-14.681,0.838-7.979,7.824
				c0,0-14.681-2.653-15.064,4.432C398.895,168.798,412.555,166.309,412.555,166.309z"/>
		</g>
		<path style="fill:#4271E9;" d="M500.717,208.899l-5.474,2.733l-9.256-27.647c3.817-1.069,6.069-1.678,6.069-1.678L500.717,208.899
			z"/>
		<g>
			<g>
				<path style="fill:#4271E9;" d="M457.495,193.561c0.09,10.907,6.811,20.017,14.642,26.989c0.509,0.453,1.263-0.295,0.751-0.751
					c-7.619-6.783-14.243-15.609-14.331-26.238C458.552,192.878,457.489,192.876,457.495,193.561L457.495,193.561z"/>
			</g>
		</g>
		<g>
			<g>
				<path style="fill:#D1642D;" d="M384.276,234.268l-14.659,23.664c0,0-22.398,21.79-29.773,30.493
					c0,0-19.481,11.992-21.289,18.752c-1.808,6.76,3.616,12.97,6.76,12.027c3.144-0.943,16.979-13.127,16.979-13.127
					s-3.223,11.869-0.629,11.319c2.594-0.55,7.467-11.005,7.546-13.284c0.079-2.28-0.472-5.895-0.472-5.895
					s34.444-20.191,36.742-23.255c2.298-3.064,15.449-21.578,15.449-21.578L384.276,234.268z"/>
				<g>
					<g>
						<path style="fill:#B94409;" d="M330.806,309.257c-3.144,2.479-5.988,5.318-8.472,8.457c-0.42,0.53,0.327,1.287,0.751,0.751
							c2.484-3.14,5.328-5.979,8.472-8.457C332.094,309.585,331.338,308.838,330.806,309.257L330.806,309.257z"/>
					</g>
				</g>
				<g>
					<g>
						<path style="fill:#B94409;" d="M327.532,306.275c-3.085,1.951-5.767,4.461-7.934,7.398c-0.406,0.551,0.515,1.081,0.917,0.536
							c2.054-2.784,4.63-5.168,7.553-7.017C328.644,306.827,328.112,305.908,327.532,306.275L327.532,306.275z"/>
					</g>
				</g>
				<g>
					<g>
						<path style="fill:#B94409;" d="M326.043,302.796c-2.967,2.258-5.562,4.941-7.712,7.987c-0.395,0.56,0.526,1.091,0.917,0.536
							c2.038-2.886,4.519-5.465,7.331-7.606c0.23-0.175,0.345-0.456,0.191-0.727C326.641,302.761,326.271,302.623,326.043,302.796
							L326.043,302.796z"/>
					</g>
				</g>
			</g>
			<g>
				<path style="fill:#77ADFC;" d="M413.875,245.341l-14.553,14.277l-4.263,4.178c-7.103-3.548-19.241-18.434-19.241-18.434
					c0.786-2.11,1.7-4.164,2.712-6.14c7.103-13.993,18.54-24.092,18.54-24.092L413.875,245.341z"/>
				<path style="fill:#4271E9;" d="M399.322,259.618l-4.263,4.178c-7.103-3.548-19.241-18.434-19.241-18.434
					c0.786-2.11,1.7-4.164,2.712-6.14L399.322,259.618z"/>
			</g>
		</g>
		<g>
			<g>
				<path style="fill:#4271E9;" d="M398.457,223.191c0.796,7.483,3.253,14.596,5.948,21.579c2.778,7.199,5.788,14.308,9.01,21.32
					c0.285,0.62,1.201,0.081,0.917-0.536c-3.184-6.929-6.157-13.952-8.903-21.066c-2.656-6.883-5.125-13.919-5.91-21.296
					C399.448,222.518,398.384,222.511,398.457,223.191L398.457,223.191z"/>
			</g>
		</g>
		<g>
			<circle style="fill:#EAEAEB;" cx="282.344" cy="342.715" r="23.202"/>
			<path style="fill:#4C5765;" d="M293.837,322.552l-5.527,7.015h-12.913l-4.886-6.813c3.466-2.061,7.509-3.241,11.834-3.241
				C286.524,319.514,290.444,320.62,293.837,322.552z"/>
			<path style="fill:#4C5765;" d="M259.161,343.768l8.883,0.925l6.897,10.916l-3.15,7.77c-3.594-1.829-6.751-4.617-9.061-8.274
				C260.498,351.574,259.339,347.668,259.161,343.768z"/>
			<path style="fill:#4C5765;" d="M296.32,361.243l-4.258-7.85l5.105-11.861l8.19-1.794c0.523,3.998,0.008,8.179-1.702,12.151
				C302.002,355.727,299.436,358.891,296.32,361.243z"/>
		</g>
	</g>
	<ellipse style="fill:#B0C2D4;" cx="660.973" cy="408.544" rx="136.099" ry="11.247"/>
	<path style="fill:#B0C2D4;" d="M242.627,408.544c0,2.789-45.083,5.049-100.695,5.049s-100.695-2.261-100.695-5.049
		c0-2.789,45.083-5.049,100.695-5.049S242.627,405.755,242.627,408.544z"/>
	<path style="fill:#B0C2D4;" d="M409.987,419.79c0,3.132-25.136,5.67-56.143,5.67c-31.007,0-56.143-2.539-56.143-5.67
		c0-3.132,25.136-5.67,56.143-5.67C384.852,414.12,409.987,416.659,409.987,419.79z"/>
	<g>
		<g>
			<g>
				<polygon style="fill:#FEB15F;" points="700.519,302.15 756.92,368.05 744.834,381.906 681.013,326.492 				"/>
				<g>
					<path style="fill:#EAEAEB;" d="M751.064,359.854c0.354,0.024,9.111,9.123,12.218,12.366c0.676,0.704,1.084,1.131,1.084,1.131
						s-15.844,36.118-22.269,33.332c-0.163-0.071-0.315-0.156-0.465-0.26c-5.785-3.782-2.314-27.968-2.314-27.968
						s-4.866-4.059-5.154-4.657c-0.294-0.591,3.971-4.694,4.927-5.046c0.954-0.359,4.854,4.724,4.854,4.724s3.67-5.571,4.657-6.867
						C749.586,365.313,750.641,359.829,751.064,359.854z"/>
					<path style="fill:#293753;" d="M763.282,372.22c0.676,0.704,1.084,1.131,1.084,1.131s-15.844,36.118-22.269,33.332
						c-0.163-0.071-0.315-0.156-0.465-0.26C746.499,398.293,763.282,372.22,763.282,372.22z"/>
					<path style="fill:#293753;" d="M745.027,404.486c0,0,4.034,1.881,4.785,1.62c0.751-0.261-2.25-3.881-2.25-3.881
						L745.027,404.486z"/>
					<path style="fill:#293753;" d="M748.345,399.565c0,0,3.909,1.651,4.379,1.231c0.471-0.421-2.337-3.194-2.337-3.194
						L748.345,399.565z"/>
					<path style="fill:#293753;" d="M752.03,394.267c0,0,4.244,1.679,4.453,1.197c0.209-0.481-2.276-3.485-2.276-3.485
						L752.03,394.267z"/>
					<path style="fill:#293753;" d="M755.357,387.981c0,0,3.651,0.979,3.989,0.711c0.338-0.269-1.97-3.033-1.97-3.033
						L755.357,387.981z"/>
					<path style="fill:#293753;" d="M759.426,381.682c0,0,3.131,1.294,3.657,0.997c0.526-0.297-1.826-3.557-1.826-3.557
						L759.426,381.682z"/>
					<path style="fill:#293753;" d="M762.454,375.765c0,0,3.212,1.459,3.787,0.974c0.574-0.485-2.559-3.204-2.559-3.204
						L762.454,375.765z"/>
					<g>
						<g>
							<path style="fill:#4271E9;" d="M752.126,364.197c-0.576,6.044,3.012,11.266,6.941,15.476
								c0.406,0.435,1.057-0.219,0.652-0.653c-3.774-4.045-7.224-9.015-6.671-14.823
								C753.105,363.606,752.182,363.61,752.126,364.197L752.126,364.197z"/>
						</g>
					</g>
					<g>
						<g>
							<path style="fill:#4271E9;" d="M743.496,373.631c0.173,4.002,0.116,8.006-0.029,12.008c-0.07,1.926-0.128,3.857-0.248,5.78
								c-0.081,1.303-0.397,2.085-1.292,3.037c-0.634,0.674-1.57,1.717-2.535,0.972c-0.47-0.363-0.93,0.439-0.466,0.797
								c1.382,1.068,2.845-0.235,3.778-1.25c1.556-1.692,1.442-3.596,1.539-5.778c0.231-5.186,0.4-10.377,0.176-15.566
								C744.393,373.039,743.471,373.036,743.496,373.631L743.496,373.631z"/>
						</g>
					</g>
					<g>
						<g>
							<path style="fill:#293753;" d="M739.019,390.353c1.893-1.307,3.957-2.34,6.144-3.057c0.562-0.184,0.321-1.076-0.245-0.89
								c-2.26,0.741-4.407,1.798-6.364,3.15C738.068,389.892,738.529,390.692,739.019,390.353L739.019,390.353z"/>
						</g>
					</g>
					<g>
						<g>
							<path style="fill:#293753;" d="M739.264,384.779c1.624-1.545,3.636-2.618,5.819-3.123c0.578-0.134,0.333-1.024-0.245-0.89
								c-2.334,0.54-4.491,1.711-6.226,3.361C738.18,384.537,738.833,385.189,739.264,384.779L739.264,384.779z"/>
						</g>
					</g>
				</g>
			</g>
			<polygon style="fill:#1F293E;" points="690.808,271.049 713.127,309.639 682.774,335.034 661.591,306.652 			"/>
		</g>
		<g>
			<g>
				<polygon style="fill:#FEB15F;" points="669.795,315.255 595.286,397.252 583.678,384.306 638.947,302.15 				"/>
				<g>
					<path style="fill:#EAEAEB;" d="M602.122,391.979c0.005,0.355-8.347,9.827-11.325,13.189c-0.646,0.732-1.038,1.173-1.038,1.173
						s-37.293-12.836-35.042-19.467c0.057-0.168,0.13-0.327,0.221-0.485c3.296-6.075,27.685-4.595,27.685-4.595
						s3.647-5.181,4.22-5.518c0.565-0.341,5.003,3.574,5.432,4.497c0.436,0.922-4.311,5.224-4.311,5.224s5.852,3.202,7.224,4.079
						C596.56,390.953,602.111,391.555,602.122,391.979z"/>
					<path style="fill:#293753;" d="M590.796,405.168c-0.646,0.732-1.038,1.173-1.038,1.173s-37.293-12.836-35.042-19.467
						c0.057-0.168,0.13-0.327,0.221-0.485C563.438,390.574,590.796,405.168,590.796,405.168z"/>
					<path style="fill:#293753;" d="M557.145,389.613c0,0-1.545,4.174-1.223,4.902c0.321,0.727,3.684-2.56,3.684-2.56
						L557.145,389.613z"/>
					<path style="fill:#293753;" d="M562.321,392.518c0,0-1.326,4.031-0.869,4.465c0.458,0.435,2.992-2.59,2.992-2.59
						L562.321,392.518z"/>
					<path style="fill:#293753;" d="M567.903,395.757c0,0-1.326,4.367-0.829,4.536c0.497,0.169,3.287-2.553,3.287-2.553
						L567.903,395.757z"/>
					<path style="fill:#293753;" d="M574.44,398.559c0,0-0.677,3.719-0.382,4.034c0.295,0.315,2.862-2.211,2.862-2.211
						L574.44,398.559z"/>
					<path style="fill:#293753;" d="M581.051,402.099c0,0-1.034,3.226-0.694,3.727c0.339,0.5,3.396-2.111,3.396-2.111
						L581.051,402.099z"/>
					<path style="fill:#293753;" d="M587.195,404.633c0,0-1.191,3.321-0.661,3.854c0.53,0.533,2.984-2.812,2.984-2.812
						L587.195,404.633z"/>
					<g>
						<g>
							<path style="fill:#4271E9;" d="M597.918,393.391c-6.072-0.084-10.99,3.892-14.868,8.158
								c-0.399,0.439,0.252,1.093,0.652,0.653c3.713-4.083,8.39-7.968,14.216-7.887
								C598.512,394.322,598.512,393.399,597.918,393.391L597.918,393.391z"/>
						</g>
					</g>
					<g>
						<g>
							<path style="fill:#4271E9;" d="M587.81,385.562c-3.901,0.491-7.822,0.761-11.748,0.943c-1.927,0.089-3.854,0.163-5.781,0.228
								c-1.07,0.036-1.97-0.023-2.874-0.635c-0.806-0.545-2.414-1.667-1.712-2.808c0.312-0.507-0.486-0.971-0.797-0.466
								c-0.964,1.568,0.481,2.886,1.654,3.784c1.803,1.38,3.805,1.048,5.953,0.967c5.113-0.192,10.226-0.452,15.306-1.09
								C588.391,386.412,588.398,385.488,587.81,385.562L587.81,385.562z"/>
						</g>
					</g>
					<g>
						<g>
							<path style="fill:#293753;" d="M570.79,382.532c1.428,1.743,2.612,3.698,3.486,5.775c0.097,0.229,0.305,0.394,0.568,0.322
								c0.216-0.059,0.42-0.336,0.322-0.568c-0.941-2.235-2.186-4.306-3.724-6.182c-0.159-0.194-0.487-0.162-0.653,0
								C570.598,382.068,570.633,382.34,570.79,382.532L570.79,382.532z"/>
						</g>
					</g>
					<g>
						<g>
							<path style="fill:#293753;" d="M576.286,382.232c1.671,1.49,2.924,3.399,3.605,5.534c0.18,0.564,1.071,0.323,0.89-0.245
								c-0.728-2.281-2.055-4.346-3.842-5.941C576.497,381.185,575.842,381.836,576.286,382.232L576.286,382.232z"/>
						</g>
					</g>
				</g>
			</g>
			<path style="fill:#293753;" d="M710.852,260.256c0,0,4.381,15.708-9.704,34.822c-14.084,19.114-36.971,36.468-36.971,36.468
				l-31.69-24.145l18.924-31.608L710.852,260.256z"/>
		</g>
		<g>
			<path style="fill:#FEB15F;" d="M619.514,242.035l-18.846,25.459c0,0-35.709-13.721-51.911-19.838c0,0-5.584,1.533-11.451,0.122
				c-5.866-1.41-11.056-4.436-11.394-5.743c-0.338-1.307-0.79-8.584,0.451-12.25c1.241-3.666,3.948-7.107,4.4-7.22
				c0.451-0.113,8.687-0.113,11.902,1.241c0,0,3.554-1.613,4.682-1.286c1.128,0.327,6.656,10.085,6.656,10.085l36.588,8.817
				l12.556-17.923L619.514,242.035z"/>
			<g>
				<g>
					<path style="fill:#E68E30;" d="M542.821,223.454c-2.669,1.186-5.139,2.773-7.316,4.721c-1.111,0.994-2.142,2.079-3.073,3.242
						c-0.81,1.011-1.713,2.113-1.93,3.428c-0.162,0.983,0.098,2.065,0.9,2.709c0.948,0.762,2.37,0.659,3.496,0.487
						c2.851-0.436,5.306-2.131,7.452-3.964c-0.257-0.15-0.514-0.299-0.771-0.449c-0.408,2.368,0.711,4.419,2.177,6.197
						c0.724,0.878,1.483,1.869,2.447,2.496c1.035,0.673,2.328,1.028,3.468,1.476c0.553,0.217,0.793-0.675,0.245-0.89
						c-0.948-0.372-1.948-0.692-2.855-1.158c-0.913-0.469-1.573-1.318-2.233-2.081c-1.393-1.611-2.747-3.549-2.36-5.795
						c0.079-0.458-0.408-0.759-0.771-0.449c-1.791,1.531-3.803,2.957-6.121,3.541c-1.132,0.285-3.252,0.685-3.96-0.556
						c-0.687-1.205,0.15-2.57,0.856-3.542c2.745-3.779,6.561-6.728,10.815-8.619C543.829,224.01,543.36,223.215,542.821,223.454
						L542.821,223.454z"/>
				</g>
			</g>
			<g>
				<g>
					<path style="fill:#E68E30;" d="M538.222,236.279c0.197,2.205,0.077,4.575-1.097,6.518c-0.992,1.641-2.758,2.862-4.721,2.785
						c-0.594-0.023-0.593,0.9,0,0.923c2.191,0.086,4.179-1.216,5.364-2.998c1.398-2.104,1.596-4.779,1.378-7.227
						C539.092,235.693,538.169,235.687,538.222,236.279L538.222,236.279z"/>
				</g>
			</g>
			<g>
				<g>
					<path style="fill:#E68E30;" d="M527.888,227.238c2.92-0.063,5.831,0.199,8.691,0.794c0.58,0.121,0.827-0.769,0.245-0.89
						c-2.938-0.611-5.935-0.892-8.936-0.827C527.295,226.327,527.292,227.25,527.888,227.238L527.888,227.238z"/>
				</g>
			</g>
			<g>
				<g>
					<path style="fill:#E68E30;" d="M531.719,232.885c-1.942-0.302-3.888-0.137-5.832,0.051c-0.248,0.024-0.461,0.195-0.461,0.461
						c0,0.231,0.212,0.486,0.461,0.461c1.85-0.18,3.737-0.372,5.587-0.084c0.246,0.038,0.496-0.063,0.568-0.322
						C532.102,233.234,531.967,232.924,531.719,232.885L531.719,232.885z"/>
				</g>
			</g>
			<g>
				<g>
					<path style="fill:#E68E30;" d="M525.842,239.506c2.138-0.311,4.439-0.083,6.565,0.241c1.969,0.3,3.92,0.931,5.32,2.414
						c0.409,0.433,1.06-0.221,0.653-0.653c-1.504-1.593-3.606-2.327-5.727-2.651c-2.306-0.353-4.738-0.578-7.055-0.241
						C525.011,238.701,525.26,239.59,525.842,239.506L525.842,239.506z"/>
				</g>
			</g>
		</g>
		<path style="fill:#FA9F21;" d="M683.989,181.51c0,0-30.801-5.676-63.071,14.511c0,0-19.118,20.864-25.631,33.761l23.448,22.276
			l12.375-19.149l20.302,42.886c0,0,37.037,0.361,59.44-15.538c0,0-9.937-41.517-16.079-58.428
			C688.629,184.917,683.989,181.51,683.989,181.51z"/>
		<g>
			<g>
				<path style="fill:#BB7719;" d="M620.182,205.947c3.346,14.66,10.385,28.052,17.371,41.245c0.278,0.525,1.075,0.059,0.797-0.466
					c-6.95-13.126-13.949-26.439-17.278-41.025C620.94,205.123,620.05,205.368,620.182,205.947L620.182,205.947z"/>
			</g>
		</g>
		<g>
			<path style="fill:#381120;" d="M654.117,175.174c0,0,2.064,3.712,7.527,3.758c5.463,0.046,6.509-2.876,6.04-4.4
				c-0.469-1.524-3.019-2.14-3.019-2.14s5.1-0.645,6.595-4.367c1.495-3.723-2.609-5.98-6.009-1.671c0,0,2.814-2.995,0.264-4.81
				c-2.55-1.815-7.418,1.274-7.418,1.274l-4.922,3.213L654.117,175.174z"/>
			<g>
				<polygon style="fill:#FEB15F;" points="641.488,176.028 642.645,182.15 644.933,194.288 658.179,183.189 656.5,168.732 
					656.494,168.738 				"/>
				<path style="fill:#E68E30;" d="M641.488,176.028l1.157,6.122c10.914-2.941,13.756-13.061,13.849-13.412L641.488,176.028z"/>
			</g>
			<path style="fill:#FEB15F;" d="M656.768,168.407c0,0-5.529,7.1-14.074,9.362c-8.545,2.262-12.692-2.136-14.137-5.027
				c-1.445-2.89-4.909-23.921,5.433-30.399c10.342-6.478,19.19-3.296,22.778,1.25C660.356,148.139,664.09,159.581,656.768,168.407z"
				/>
			<path style="fill:#E68E30;" d="M641.49,162.819c0,2.794,2.265,5.058,5.058,5.058s5.058-2.265,5.058-5.058
				c0-2.794-2.265-5.059-5.058-5.059S641.49,160.025,641.49,162.819z"/>
			<path style="fill:#381120;" d="M653.409,161.545c0,0-3.073-6.939,0-13.79c0,0-2.18,3.915-11.519,6.895
				c-9.339,2.98-10.691-4.421-7.127-6.895c0,0-12.814,3.381-13.792-4.822c-0.978-8.203,11.817-7.677,16.219-6.548
				c0,0-4.102-1.882-2.221-4.892c1.882-3.01,14.149-2.559,19.267,5.87c0,0-1.656-3.613,0-4.44
				c1.656-0.828,11.665,4.215,7.601,21.826L653.409,161.545z"/>
			<g>
				<path style="fill:#FEB15F;" d="M656.498,168.734l-3.089-7.19c0,0,4.253-8.165,9.305-7.766
					C667.766,154.178,667.766,165.342,656.498,168.734z"/>
				<g>
					<g>
						<path style="fill:#E68E30;" d="M661.063,156.55c-2.552,1.503-4.512,3.865-5.545,6.637c-0.208,0.557,0.684,0.798,0.89,0.245
							c0.948-2.543,2.785-4.71,5.121-6.086C662.04,157.046,661.576,156.248,661.063,156.55L661.063,156.55z"/>
					</g>
				</g>
			</g>
		</g>
		<g>
			<g>
				<path style="fill:#FEB15F;" d="M721.57,191.353c0,0,25.158,11.536,31.001,17.541c0,0-4.709,32.701-40.962,63.367
					c0,0-5.7,13.168-10.582,16.706c0,0-7.5,0.778-10.684-0.778c-3.184-1.557-7.571-15-7.571-15l17.618-8.844l21.752-42.989
					l-14.437-4.454L721.57,191.353z"/>
				<polygon style="fill:#E68E30;" points="682.774,273.189 684.04,266.908 692.546,264.433 699.751,264.667 				"/>
				<g>
					<g>
						<path style="fill:#E68E30;" d="M683.968,277.264c2.462,0.49,4.97,0.707,7.48,0.637c0.593-0.017,0.595-0.94,0-0.923
							c-2.428,0.068-4.852-0.13-7.235-0.604C683.633,276.259,683.385,277.148,683.968,277.264L683.968,277.264z"/>
					</g>
				</g>
				<g>
					<g>
						<path style="fill:#E68E30;" d="M686.084,282.31c3.018,0.92,6.173,1.341,9.326,1.245c0.592-0.018,0.595-0.941,0-0.923
							c-3.078,0.094-6.135-0.314-9.081-1.212C685.76,281.247,685.516,282.137,686.084,282.31L686.084,282.31z"/>
					</g>
				</g>
				<g>
					<g>
						<path style="fill:#E68E30;" d="M688.534,286.803c2.4,0.561,4.843,1.118,7.325,0.966c0.59-0.036,0.594-0.959,0-0.923
							c-2.405,0.147-4.754-0.389-7.08-0.933C688.202,285.778,687.955,286.668,688.534,286.803L688.534,286.803z"/>
					</g>
				</g>
			</g>
			<g>
				<path style="fill:#FA9F21;" d="M715.052,222.937l14.534-30.559c0,0-27.643-15.247-45.597-10.868c0,0-8.834,15.923,4.275,30.812
					L715.052,222.937z"/>
				<g>
					<g>
						<path style="fill:#BB7719;" d="M683.322,181.59c-2.765,6.08-3.597,12.848-2.38,19.416c0.108,0.583,0.998,0.336,0.89-0.245
							c-1.168-6.303-0.367-12.869,2.287-18.705C684.363,181.52,683.568,181.05,683.322,181.59L683.322,181.59z"/>
					</g>
				</g>
				<g>
					<g>
						<path style="fill:#BB7719;" d="M688.283,212.975c6.254,2.368,12.432,4.932,18.524,7.69c0.537,0.243,1.006-0.552,0.466-0.797
							c-6.165-2.791-12.416-5.387-18.745-7.783C687.973,211.874,687.732,212.766,688.283,212.975L688.283,212.975z"/>
					</g>
				</g>
			</g>
		</g>
	</g>
	<g>
		<path style="fill:#FEB15F;" d="M69.923,251.639l37.574,26.65l13.372-10.912l23.243,26.479c0,0-26.707,18.089-32.928,17.934
			c-6.222-0.156-59.222-49.48-59.222-49.48L69.923,251.639z"/>
		<polygon style="fill:#FEB15F;" points="167.598,300.592 189.652,383.889 190.726,386.431 203.56,388.206 212.683,381.21 
			199.391,297.692 		"/>
		<g>
			<polygon style="fill:#293753;" points="142.621,238.374 109.157,273.689 135.657,302.721 159.727,284.109 164.859,311.779 
				202.329,305.621 197.993,256.688 			"/>
			<g>
				<g>
					<path style="fill:#1F293E;" d="M157.752,286.227c1.231-1.101,2.463-2.203,3.694-3.304c0.592-0.529,1.184-1.189,1.871-1.589
						c0.705-0.411,1.574-0.438,2.363-0.54c3.129-0.405,6.273-0.736,9.429-0.461c0.71,0.062,0.706-1.046,0-1.108
						c-3.467-0.302-6.922,0.123-10.356,0.583c-0.698,0.093-1.379,0.208-1.995,0.57c-0.629,0.369-1.16,0.926-1.7,1.408
						c-1.363,1.219-2.727,2.439-4.09,3.658C156.436,285.92,157.221,286.701,157.752,286.227L157.752,286.227z"/>
				</g>
			</g>
		</g>
		<g>
			<polygon style="fill:#E68E30;" points="92.685,230.288 93.014,236.3 86.245,242.064 79.587,241.743 			"/>
			<polygon style="fill:#FEB15F;" points="137.931,176.532 109.273,184.002 81.853,215.785 68.406,225.95 68.668,237.803 
				79.587,241.743 92.685,230.288 93.046,226.384 125.086,200.381 136.258,198.595 			"/>
			<g>
				<g>
					<path style="fill:#E68E30;" d="M79.79,231.974c-0.513,1.583-1.17,3.184-1.481,4.822c-0.314,1.649,0.021,3.271,0.398,4.88
						c0.163,0.694,1.231,0.4,1.068-0.294c-0.358-1.528-0.691-3.067-0.326-4.628c0.356-1.518,0.928-3.002,1.409-4.484
						C81.079,231.588,80.01,231.297,79.79,231.974L79.79,231.974z"/>
				</g>
			</g>
			<g>
				<g>
					<path style="fill:#E68E30;" d="M75.604,229.484c-1.364,3.145-2.758,6.437-2.521,9.939c0.048,0.707,1.156,0.713,1.108,0
						c-0.224-3.303,1.083-6.412,2.37-9.38C76.842,229.396,75.888,228.831,75.604,229.484L75.604,229.484z"/>
				</g>
			</g>
			<g>
				<g>
					<path style="fill:#E68E30;" d="M71.082,227.745c-1.699,2.828-2.714,6.004-2.998,9.289c-0.062,0.71,1.047,0.706,1.108,0
						c0.267-3.087,1.252-6.075,2.847-8.73C72.407,227.692,71.449,227.134,71.082,227.745L71.082,227.745z"/>
				</g>
			</g>
		</g>
		<g>
			<path style="fill:#FEB15F;" d="M254.621,175.617l21.675,1.523l18.036-30.828c0,0-1.795-2.929-1.583-10.154
				s1.503-11.436,2.925-11.265c1.422,0.171,1.9,12.436,1.9,12.436s11.348-19.747,13.848-20.67c2.501-0.923,0.452,5.069,0.452,5.069
				s2.675-4.568,3.887-3.816c1.212,0.751,7.759,19.253-13.16,34.636l-13.434,37.89l-36.877,6.38L254.621,175.617z"/>
			<g>
				<g>
					<path style="fill:#E68E30;" d="M296.513,130.898c0.644,2.062,0.848,4.191,0.618,6.338c-0.035,0.324,0.284,0.519,0.554,0.554
						c1.218,0.159,2.157,1.334,2.81,2.279c0.706,1.021,1.213,2.143,1.534,3.341c0.185,0.688,1.254,0.396,1.068-0.295
						c-0.397-1.478-1.063-2.867-1.994-4.082c-0.88-1.148-1.932-2.157-3.418-2.352c0.185,0.185,0.369,0.369,0.554,0.554
						c0.239-2.236,0.013-4.486-0.658-6.633C297.37,129.925,296.3,130.215,296.513,130.898L296.513,130.898z"/>
				</g>
			</g>
			<g>
				<g>
					<path style="fill:#E68E30;" d="M304.37,128.466c3.703,2.929,6.909,6.441,9.47,10.408c0.385,0.597,1.345,0.042,0.957-0.559
						c-2.611-4.044-5.867-7.646-9.643-10.633C304.6,127.244,303.811,128.023,304.37,128.466L304.37,128.466z"/>
				</g>
			</g>
			<g>
				<g>
					<path style="fill:#E68E30;" d="M312.017,119.727c-1.074,3.519-2.601,6.874-4.542,10c-0.377,0.607,0.581,1.164,0.957,0.559
						c1.989-3.203,3.552-6.658,4.653-10.264C313.294,119.338,312.225,119.046,312.017,119.727L312.017,119.727z"/>
				</g>
			</g>
			<g>
				<g>
					<path style="fill:#E68E30;" d="M316.476,119.98c-1.148,4.567-3.775,8.522-6.362,12.387c-0.398,0.594,0.562,1.149,0.957,0.559
						c2.64-3.945,5.303-7.992,6.474-12.652C317.718,119.583,316.65,119.288,316.476,119.98L316.476,119.98z"/>
				</g>
			</g>
			<g>
				<g>
					<path style="fill:#E68E30;" d="M317.128,127.606c-1.388,2.735-3.384,5.068-5.376,7.374c-0.464,0.537,0.316,1.324,0.783,0.783
						c2.051-2.374,4.121-4.784,5.549-7.598C318.406,127.531,317.451,126.969,317.128,127.606L317.128,127.606z"/>
				</g>
			</g>
		</g>
		<path style="fill:#D4453D;" d="M175.284,166.742l81.066,8.626c0,0,2.759,12.595,0.668,21.858l-31.35,4.755
			c0,0-14.995,34.031-27.674,54.707c0,0-29.622,5.17-55.372-18.314l17.745-54.952L175.284,166.742z"/>
		<g>
			<polygon style="fill:#A0571C;" points="193.913,141.841 197.214,164.207 199.832,155.751 			"/>
			<g>
				<polygon style="fill:#FEB15F;" points="207.039,181.889 195.484,170.134 199.645,155.885 212.705,164.775 210.242,172.21 				
					"/>
				<path style="fill:#E68E30;" d="M210.242,172.21c-9.374-6.116-10.598-16.325-10.598-16.325l13.061,8.891L210.242,172.21z"/>
			</g>
			<path style="fill:#FEB15F;" d="M199.433,156.252c0,0,7.851,11.986,17.985,12.089c10.135,0.103,11.605-15.176,11.17-19.744
				c-0.435-4.569-0.271-14.191-10.707-16.855c-10.436-2.663-15.348-1.617-18.989,4.054
				C195.253,141.468,199.433,156.252,199.433,156.252z"/>
			<path style="fill:#A0571C;" d="M202.344,151.127c0,0,3.147-5.603,2.629-13.357c0,0,15.935,6.261,24.463,4.068
				c8.528-2.193,9.99-8.127,8.974-10.024c-1.016-1.897-6.678-1.05-9.761,0.898c0,0,5.864-4.94,3.732-7.75
				c-2.132-2.81-9.088,2.331-10.116,4.001c0,0,3.221-4.449,0.498-5.857c-2.723-1.408-5.419,2.295-6.24,4.805
				c0,0-12.622-6.164-19.356,2.674c-6.734,8.838-1.569,19.93,0.816,23.446L202.344,151.127z"/>
			<g>
				<path style="fill:#FEB15F;" d="M199.433,156.252l2.911-5.125c0,0-2.756-12.337-9.747-8.787
					C186.042,145.668,195.164,155.957,199.433,156.252z"/>
				<g>
					<g>
						<path style="fill:#E68E30;" d="M195.33,146.277c1.196,0.534,2.261,1.251,2.994,2.357c0.705,1.065,1.124,2.278,1.533,3.478
							c0.229,0.671,1.299,0.383,1.068-0.295c-0.449-1.317-0.911-2.667-1.7-3.826c-0.833-1.224-1.993-2.073-3.335-2.671
							c-0.273-0.122-0.595-0.079-0.758,0.199C194.993,145.756,195.055,146.155,195.33,146.277L195.33,146.277z"/>
					</g>
				</g>
			</g>
			<path style="fill:#E68E30;" d="M213.543,154.492c-0.909,2.519-3.688,3.824-6.206,2.915c-2.519-0.909-3.824-3.688-2.915-6.206
				c0.909-2.519,3.688-3.824,6.206-2.915C213.147,149.194,214.452,151.973,213.543,154.492z"/>
		</g>
		<path style="fill:#D4453D;" d="M130.337,176.863l-0.8,23.918c0,0,19.894,0.772,31.919-2.957
			c12.025-3.729,13.828-31.082,13.828-31.082L130.337,176.863z"/>
		<g>
			<g>
				<path style="fill:#9F342E;" d="M164.551,196.486c-4.909,1.979-10.079,3.235-15.353,3.7c-0.705,0.062-0.711,1.171,0,1.108
					c5.375-0.474,10.642-1.722,15.647-3.74C165.499,197.291,165.213,196.219,164.551,196.486L164.551,196.486z"/>
			</g>
		</g>
		<g>
			<g>
				<path style="fill:#9F342E;" d="M223.952,207.133c3.385-6.528,5.852-13.49,7.314-20.697c0.141-0.696-0.926-0.994-1.068-0.295
					c-1.444,7.115-3.861,13.987-7.203,20.432C222.667,207.206,223.623,207.767,223.952,207.133L223.952,207.133z"/>
			</g>
		</g>
		<g>
			<path style="fill:#EAEAEB;" d="M188.359,383.954c-0.135,0.404,5.966,14.283,8.147,19.214c0.472,1.072,0.76,1.72,0.76,1.72
				s47.335-1.088,47.178-9.493c-0.004-0.213-0.029-0.422-0.076-0.636c-1.556-8.15-29.991-15.347-29.991-15.347
				s-2.283-7.256-2.816-7.85c-0.522-0.596-7.025,2.264-7.853,3.164c-0.834,0.896,3.027,7.546,3.027,7.546s-7.861,1.529-9.751,2.033
				C195.094,384.808,188.525,383.474,188.359,383.954z"/>
			<path style="fill:#293753;" d="M196.505,403.168c0.472,1.072,0.76,1.72,0.76,1.72s47.335-1.088,47.178-9.493
				c-0.004-0.213-0.029-0.422-0.076-0.636C233.118,396.449,196.505,403.168,196.505,403.168z"/>
			<path style="fill:#293753;" d="M240.666,397.643c0,0,0.245,5.338-0.387,6.053c-0.633,0.715-3.281-4.271-3.281-4.271
				L240.666,397.643z"/>
			<path style="fill:#293753;" d="M233.686,399.079c0,0,0.048,5.094-0.634,5.424c-0.682,0.33-2.478-4.053-2.478-4.053
				L233.686,399.079z"/>
			<path style="fill:#293753;" d="M226.121,400.749c0,0-0.075,5.478-0.705,5.491c-0.63,0.013-2.829-4.119-2.829-4.119
				L226.121,400.749z"/>
			<path style="fill:#293753;" d="M217.623,401.571c0,0-0.581,4.5-1.034,4.753c-0.452,0.253-2.467-3.573-2.467-3.573
				L217.623,401.571z"/>
			<path style="fill:#293753;" d="M208.771,403.211c0,0,0.006,4.067-0.565,4.515c-0.57,0.449-3.114-3.652-3.114-3.652
				L208.771,403.211z"/>
			<path style="fill:#293753;" d="M200.819,403.869c0,0,0.152,4.233-0.648,4.649c-0.8,0.416-2.388-4.304-2.388-4.304
				L200.819,403.869z"/>
			<g>
				<g>
					<path style="fill:#4271E9;" d="M192.337,388.164c6.687,2.012,10.63,8.216,13.378,14.222c0.296,0.647,1.251,0.085,0.957-0.559
						c-2.876-6.286-7.066-12.633-14.04-14.731C191.947,386.89,191.654,387.959,192.337,388.164L192.337,388.164z"/>
				</g>
			</g>
			<g>
				<g>
					<path style="fill:#4271E9;" d="M206.62,382.838c5.431,2.516,11.029,4.636,16.655,6.67c2.398,0.867,4.837,2.214,7.412,1.38
						c1.728-0.559,4.198-1.609,3.58-3.862c-0.188-0.687-1.257-0.395-1.068,0.294c0.423,1.542-1.907,2.261-3.015,2.569
						c-1.171,0.326-2.132,0.151-3.263-0.244c-2.167-0.757-4.322-1.55-6.475-2.345c-4.483-1.656-8.93-3.409-13.268-5.419
						C206.537,381.583,205.973,382.538,206.62,382.838L206.62,382.838z"/>
				</g>
			</g>
			<g>
				<g>
					<path style="fill:#293753;" d="M227.105,383.599c-2.394,1.553-4.561,3.441-6.415,5.611c-0.461,0.539,0.319,1.327,0.783,0.783
						c1.794-2.1,3.874-3.935,6.191-5.438C228.261,384.169,227.706,383.21,227.105,383.599L227.105,383.599z"/>
				</g>
			</g>
			<g>
				<g>
					<path style="fill:#293753;" d="M220.928,381.253c-2.629,1.172-4.886,3.06-6.549,5.404c-0.173,0.244-0.043,0.616,0.199,0.758
						c0.278,0.162,0.584,0.046,0.758-0.199c1.555-2.192,3.701-3.913,6.152-5.006c0.273-0.122,0.338-0.52,0.199-0.758
						C221.522,381.17,221.203,381.13,220.928,381.253L220.928,381.253z"/>
				</g>
			</g>
		</g>
		<g>
			<path style="fill:#EAEAEB;" d="M72.696,252.699c-0.109-0.412-12.823-8.67-17.352-11.596c-0.983-0.637-1.579-1.021-1.579-1.021
				s-38.98,26.877-34.237,33.818c0.12,0.176,0.255,0.336,0.412,0.49c5.771,5.961,33.495-3.621,33.495-3.621s5.89,4.814,6.661,5.018
				c0.763,0.212,4.631-5.747,4.83-6.953c0.206-1.207-6.67-4.649-6.67-4.649s5.734-5.591,7.037-7.048
				C66.596,255.68,72.82,253.192,72.696,252.699z"/>
			<path style="fill:#293753;" d="M55.344,241.103c-0.983-0.637-1.579-1.021-1.579-1.021s-38.98,26.877-34.237,33.818
				c0.12,0.176,0.255,0.336,0.412,0.49C28.418,266.806,55.344,241.103,55.344,241.103z"/>
			<path style="fill:#293753;" d="M21.452,269.948c0,0-3.133-4.328-2.997-5.273c0.137-0.945,5.086,1.771,5.086,1.771L21.452,269.948
				z"/>
			<path style="fill:#293753;" d="M26.5,264.92c0,0-2.834-4.233-2.445-4.883c0.389-0.65,4.295,2.03,4.295,2.03L26.5,264.92z"/>
			<path style="fill:#293753;" d="M31.909,259.372c0,0-2.942-4.621-2.423-4.977c0.52-0.356,4.625,1.892,4.625,1.892L31.909,259.372z
				"/>
			<path style="fill:#293753;" d="M38.564,254.024c0,0-1.983-4.082-1.743-4.541c0.24-0.459,4.023,1.633,4.023,1.633L38.564,254.024z
				"/>
			<path style="fill:#293753;" d="M45.065,247.797c0,0-2.236-3.397-2.005-4.085c0.231-0.688,4.608,1.345,4.608,1.345L45.065,247.797
				z"/>
			<path style="fill:#293753;" d="M51.353,242.884c0,0-2.449-3.455-2.008-4.243c0.441-0.787,4.358,2.289,4.358,2.289L51.353,242.884
				z"/>
			<g>
				<g>
					<path style="fill:#4271E9;" d="M67.083,251.355c-6.721,1.963-13.358-1.001-18.977-4.528c-0.606-0.38-1.162,0.578-0.559,0.957
						c5.872,3.685,12.822,6.686,19.831,4.639C68.06,252.224,67.77,251.154,67.083,251.355L67.083,251.355z"/>
				</g>
			</g>
			<g>
				<g>
					<path style="fill:#4271E9;" d="M57.921,263.67c-6.088,0.901-12.091,2.255-18.073,3.684c-2.327,0.556-4.744,0.79-6.333,2.754
						c-1.121,1.386-2.653,3.65-0.914,5.183c0.533,0.47,1.319-0.311,0.783-0.783c-1.155-1.018,0.117-2.576,0.809-3.48
						c0.751-0.981,1.549-1.512,2.744-1.834c2.309-0.62,4.659-1.125,6.988-1.663c4.731-1.093,9.486-2.082,14.291-2.793
						C58.918,264.634,58.619,263.566,57.921,263.67L57.921,263.67z"/>
				</g>
			</g>
			<g>
				<g>
					<path style="fill:#293753;" d="M40.477,274.285c1.173-2.67,1.946-5.464,2.315-8.356c0.038-0.299-0.282-0.551-0.554-0.554
						c-0.331-0.003-0.516,0.258-0.554,0.554c-0.342,2.681-1.076,5.323-2.164,7.797C39.236,274.372,40.19,274.937,40.477,274.285
						L40.477,274.285z"/>
				</g>
			</g>
			<g>
				<g>
					<path style="fill:#293753;" d="M46.928,272.858c1.554-2.426,2.422-5.238,2.53-8.115c0.027-0.713-1.081-0.712-1.108,0
						c-0.101,2.687-0.929,5.293-2.379,7.556C45.586,272.901,46.545,273.457,46.928,272.858L46.928,272.858z"/>
				</g>
			</g>
		</g>
	</g>
</g>
</svg>
