<?xml version="1.0" encoding="utf-8"?>
<!-- Generator: Adobe Illustrator 27.5.0, SVG Export Plug-In . SVG Version: 6.00 Build 0)  -->
<svg version="1.1" xmlns="http://www.w3.org/2000/svg" xmlns:xlink="http://www.w3.org/1999/xlink" x="0px" y="0px"
	 viewBox="0 0 750 500" style="enable-background:new 0 0 750 500;" xml:space="preserve">
<g id="BACKGROUND">
	<rect style="fill:#B2BFF9;" width="750" height="500"/>
</g>
<g id="OBJECTS">
	<g>
		<path style="fill:#9A8AED;" d="M473.571,365.137c-30.525,14.774-60.083,32.049-93.073,39.331
			c-24.414,5.389-49.517,5.008-74.35,6.305c-22.103,1.155-50.806,1.775-68.919,16.546c-5.696,4.645-9.817,11.92-8.696,19.184
			c1.956,12.675,17.286,17.951,30.068,18.997c16.853,1.38,33.799-0.055,50.707,0.099c66.42,0.606,131.996,25.679,197.927,17.606
			c22.237-2.723,44.408-9.434,62.512-22.63c18.103-13.196,31.756-33.44,33.816-55.747c1.816-19.669-6.715-40.088-22.581-52.026
			c-19.371-14.576-45.046-11.384-66.802-4.453C500.223,352.796,486.807,358.731,473.571,365.137z"/>
		<path style="fill:none;stroke:#B5F4E1;stroke-width:1.5;stroke-miterlimit:10;" d="M500.808,368.33
			c-18.865-0.979-37.897,0.675-56.205,4.885c-22.379,5.147-43.515,14.04-65.845,19.358c-11.806,2.812-24.081,6.828-36.165,6.909
			c-16.744,0.113-33.495-0.072-50.24-0.107c-14.902-0.032-29.931-0.051-44.522,2.98c-14.591,3.031-28.9,9.38-39.004,20.334
			c-4.184,4.536-7.687,10.103-8.05,16.264c-0.711,12.081,10.724,21.613,22.264,25.258c24.763,7.823,51.201-1.603,76.942-5.042
			c59.174-7.906,116.535,19.706,175.738,14.866c24.412-1.996,50.859-12.495,69.339-28.639
			c13.392-11.699,22.925-33.436,15.775-51.146C551.505,371.147,521.908,369.425,500.808,368.33z"/>
		<g>
			<path d="M466.328,306.114c-5.701-0.659-38.391,2.508-38.68,7.872c-0.289,5.364,17.409,8.329,35.668,10.245
				c18.259,1.916,31.823,4.916,29.204-2.009C489.901,315.297,487.934,308.612,466.328,306.114z"/>
			<path style="fill:#E9725B;" d="M398.172,332.87c-8.564-17.548-18.093-27.455-17.803-28.383
				c0.29-0.928,42.755-36.042,42.755-36.042l-53.082-28.978c0,0-13.191,11.283-32.673,29.943
				c-6.079,5.823-14.542,23.545-6.147,39.429c7.424,14.048,21.631,33.663,25.901,39.526c7.81,10.724,32.309,42.063,32.309,42.063
				l30.249-20.307C419.682,370.12,406.736,350.419,398.172,332.87z"/>
			<path style="fill:#FFE978;" d="M414.709,202.086l-10.512,11.22c0,0-42.85,28.372-63.009,51.376
				c5.723,4.331,9.103,10.671,13.919,15.992c2.865,3.165,5.981,5.88,9.392,8.448c7.986,6.011,12.557,6.641,27.463,9.998
				c4.478-3.311,11.571-8.15,12.648-9.007c4.178-3.324,8.362-6.642,12.566-9.934c7.991-6.256,16.505-11.967,24.178-18.496
				c4.646-3.953,9.762-7.32,14.458-11.212c4.09-3.39,7.671-7.44,10.31-12.062c2.852-4.995,3.916-10.239,4.987-15.814
				c0.863-4.492,1.53-9.065,1.248-13.65"/>
			<path style="fill:none;stroke:#FFFFFF;stroke-width:3;stroke-miterlimit:10;" d="M380.881,296.161
				c21.233-17.7,43.28-34.745,64.513-52.445"/>
			<path style="fill:#E9725B;" d="M483.527,363.666c-5.21-18.819-12.767-30.301-12.312-31.16
				c0.455-0.859,17.756-61.759,17.756-61.759l-56.953,22.15c-0.794,11.851-3.895,23.455-4.057,35.36
				c-0.215,15.836,5.703,29.164,12.375,43.135c5.717,11.971,24.04,45.987,24.04,45.987l33.484-13.156
				C497.861,404.222,488.737,382.485,483.527,363.666z"/>
			<path style="fill:#FFE978;" d="M497.94,215.665c-0.383,5.816,2.647,11.081,3.502,16.712c0.815,5.37-0.059,10.66-0.506,15.989
				c-1.438,17.138-4.286,34-6.741,51.011c-1.092,7.562,0.081,16.51-1.384,24.728c-0.702-4.339-19.162-9.893-29.278-11.2
				c-11.801-1.525-28.094-2.388-35.883,1.082c0,0,3.109-23.285,4.106-33.335c0.499-5.025,1.066-10.043,1.702-15.052
				c0.551-4.341,0.72-11.441,0.701-15.814c-0.023-5.152-1.079-7.678-4.735-11.308c-0.856-3.446-0.297-7.984,0.725-11.385
				c3.472-11.553,8.067-22.767,13.7-33.434"/>
			<path style="fill:none;stroke:#000000;stroke-miterlimit:10;" d="M433.07,268.711c0,0,1.156-20.565,0.903-21.969
				c-0.253-1.404-2.148-8.614-2.148-8.614"/>
			<path style="fill:none;stroke:#FFFFFF;stroke-width:3;stroke-miterlimit:10;" d="M489.203,203.837
				c2.964,5.487,4.578,25.47,4.633,31.706c0.447,50.728-7.626,48.284-6.603,83.143"/>
			<g>
				<path style="fill:#FFFFFF;" d="M489.249,381.664c0,0-6.108,5.818-18.48,10.039c-12.372,4.221-18.794,2.854-18.794,2.854
					c6.03,11.727,12.209,22.994,16.914,34.426l31.365-20.164L489.249,381.664z"/>
				<g>
					<path style="fill:#FFFFFF;" d="M517.161,431.356c-0.429-2.457-2.38-4.707-4.853-5.034l-78.619,30.72
						c-0.492,1.529,0.295,3.218,1.445,4.34c1.748,1.705,4.048,2.954,6.356,3.692c4.8,1.535,9.932,2.213,14.943,1.471
						c5.188-0.769,9.635-3.48,14.471-5.314c4.503-1.707,9.62-2.545,13.334-5.833c1.691-1.497,2.966-3.49,4.913-4.634
						c1.516-0.891,3.305-1.182,5.055-1.356c1.36-0.135,2.732-0.211,4.064-0.514c1.462-0.332,2.849-0.932,4.202-1.579
						c2.47-1.181,4.861-2.53,7.148-4.035c2.084-1.371,4.114-2.902,5.597-4.908C516.7,436.366,517.59,433.814,517.161,431.356z"/>
					<path style="fill:#D1402C;" d="M505.19,436.613c2.847-1.328,7.463-3.518,8.31-6.84c0.797-3.126-0.678-7.067-2.468-9.6
						c-1.866-2.64-3.74-5.407-5.844-7.816c-2.307-2.641-4.546-5.505-5.444-8.961c-0.206-0.793-0.344-1.62-0.75-2.331
						c-2.133-3.737-5.426,1.654-6.275,3.503c-1.206,2.625-1.471,5.731-3.316,7.954c-1.817,2.189-4.77,3.033-7.571,3.53
						c-4.153,0.736-8.528,1.535-12.76,0.909c-1.561-0.231-3.061-0.783-4.623-1.01c-1.562-0.227-3.286-0.078-4.501,0.93
						c-2.326,1.929,0.487,5.52,0.13,7.932c-0.204,1.383-1.45,3.085-2.144,4.281c-1.635,2.821-3.597,5.447-5.762,7.882
						c-4.327,4.868-9.424,8.983-14.584,12.956c-2.998,2.308-5.017,6.805-2.808,9.12c1.074,1.125,7.606,2.39,10.477,2.373
						c9.124-0.052,18.501-1.458,26.466-6.168c4.305-2.546,8.037-5.955,12.24-8.666C490.54,442.348,498.095,439.922,505.19,436.613z"
						/>
					<path style="fill:none;stroke:#000000;stroke-miterlimit:10;" d="M443.124,445.918c-0.524,0.691-1.048,1.382-1.572,2.073
						c-0.484,0.639-0.991,1.337-1.003,2.139c-0.014,0.936,0.658,1.747,1.407,2.308c1.374,1.029,3.1,1.516,4.814,1.606
						c1.714,0.089,3.427-0.198,5.097-0.596c3.856-0.919,7.551-2.429,11.408-3.343c3.857-0.914,8.026-1.197,11.694,0.306
						c0.699,0.286,1.381,0.641,1.933,1.156"/>
					<path style="fill:none;stroke:#000000;stroke-miterlimit:10;" d="M507.311,415.353c-1.818,2.452-4.262,4.36-6.317,6.618
						c-2.054,2.258-3.78,5.098-3.627,8.147c0.075,1.489,0.596,2.968,0.366,4.441c-0.254,1.622-1.372,2.956-2.446,4.198
						c-1.01,1.168-2.021,2.337-3.031,3.505"/>
					<path style="fill:none;stroke:#FFFFFF;stroke-width:3;stroke-linecap:round;stroke-miterlimit:10;" d="M449.959,437.596
						c2.59,0.488,5.191,0.978,7.684,1.833c2.493,0.855,4.893,2.093,6.799,3.913"/>
					<path style="fill:none;stroke:#FFFFFF;stroke-width:3;stroke-linecap:round;stroke-miterlimit:10;" d="M454.658,432.322
						c5.926-1.154,12.318,0.343,17.116,4.009"/>
					<path style="fill:none;stroke:#FFFFFF;stroke-width:3;stroke-linecap:round;stroke-miterlimit:10;" d="M459.08,424.966
						c5.414-0.291,10.883,0.475,16.01,2.241"/>
				</g>
				<path style="fill:none;stroke:#FFE978;stroke-miterlimit:10;" d="M454.239,398.803c6.581,0.893,13.32-0.447,19.486-2.915
					c6.166-2.467,11.828-6.029,17.344-9.729"/>
			</g>
			<g>
				<path style="fill:#FFFFFF;" d="M408.852,352.007c0,0-5.047,6.759-16.536,12.994c-11.49,6.234-18.24,5.966-18.24,5.966
					c7.909,10.551,16.078,20.62,22.633,31.102l27.543-25.134L408.852,352.007z"/>
				<g>
					<path style="fill:#FFFFFF;" d="M444.695,396.32c-0.835-2.351-3.135-4.242-5.628-4.15l-72.361,43.458
						c-0.229,1.59,0.83,3.123,2.152,4.036c2.009,1.388,4.486,2.234,6.885,2.575c4.99,0.709,10.163,0.518,14.978-1.054
						c4.986-1.627,8.915-5.045,13.376-7.663c4.153-2.438,9.058-4.121,12.168-7.985c1.416-1.759,2.339-3.937,4.067-5.391
						c1.346-1.132,3.06-1.719,4.756-2.184c1.318-0.361,2.658-0.666,3.921-1.188c1.386-0.573,2.652-1.396,3.878-2.26
						c2.238-1.578,4.368-3.309,6.371-5.176c1.825-1.701,3.57-3.55,4.695-5.776C445.08,401.336,445.53,398.671,444.695,396.32z"/>
					<path style="fill:#D1402C;" d="M433.774,403.508c2.585-1.786,6.768-4.718,7.046-8.135c0.262-3.216-1.853-6.854-4.042-9.051
						c-2.282-2.29-4.593-4.704-7.071-6.726c-2.716-2.217-5.404-4.666-6.869-7.922c-0.336-0.747-0.61-1.539-1.13-2.173
						c-2.729-3.327-5.072,2.539-5.6,4.505c-0.749,2.79-0.49,5.897-1.936,8.398c-1.424,2.463-4.194,3.79-6.872,4.748
						c-3.971,1.421-8.15,2.942-12.428,3.034c-1.578,0.034-3.149-0.259-4.727-0.222c-1.578,0.038-3.252,0.473-4.281,1.67
						c-1.97,2.292,1.404,5.36,1.457,7.798c0.03,1.398-0.913,3.284-1.396,4.58c-1.139,3.055-2.634,5.972-4.36,8.736
						c-3.45,5.524-7.786,10.435-12.207,15.217c-2.569,2.778-3.806,7.549-1.241,9.462c1.247,0.93,7.898,1.082,10.726,0.585
						c8.986-1.58,17.995-4.537,25.058-10.515c3.818-3.231,6.926-7.218,10.615-10.594
						C420.292,411.617,427.334,407.959,433.774,403.508z"/>
					<path style="fill:none;stroke:#000000;stroke-miterlimit:10;" d="M374.145,423.081c-0.401,0.769-0.802,1.538-1.203,2.307
						c-0.371,0.711-0.753,1.484-0.63,2.277c0.143,0.925,0.941,1.612,1.774,2.04c1.527,0.784,3.31,0.975,5.015,0.776
						c1.705-0.199,3.346-0.77,4.925-1.442c3.647-1.552,7.038-3.66,10.687-5.207c3.649-1.547,7.712-2.525,11.58-1.657
						c0.737,0.165,1.469,0.401,2.1,0.816"/>
					<path style="fill:none;stroke:#000000;stroke-miterlimit:10;" d="M432.304,382.193c-1.381,2.722-3.472,5.013-5.119,7.583
						s-2.872,5.659-2.211,8.639c0.323,1.455,1.085,2.826,1.105,4.317c0.022,1.642-0.857,3.144-1.708,4.548
						c-0.8,1.321-1.601,2.643-2.401,3.964"/>
					<path style="fill:none;stroke:#FFFFFF;stroke-width:3;stroke-linecap:round;stroke-miterlimit:10;" d="M379.489,413.732
						c2.635,0.047,5.281,0.095,7.883,0.519c2.601,0.425,5.175,1.243,7.359,2.719"/>
					<path style="fill:none;stroke:#FFFFFF;stroke-width:3;stroke-linecap:round;stroke-miterlimit:10;" d="M383.238,407.744
						c5.649-2.131,12.202-1.725,17.546,1.085"/>
					<path style="fill:none;stroke:#FFFFFF;stroke-width:3;stroke-linecap:round;stroke-miterlimit:10;" d="M386.365,399.751
						c5.289-1.194,10.809-1.355,16.159-0.473"/>
				</g>
				<path style="fill:none;stroke:#FFE978;stroke-miterlimit:10;" d="M376.936,374.753c6.638-0.223,13.33-2.656,18.996-6.122
					s10.651-7.926,15.469-12.497"/>
			</g>
			<path style="fill:none;stroke:#000000;stroke-miterlimit:10;" d="M380.438,304.095c-1.412,2.494-3.189,4.78-5.257,6.764"/>
			<path style="fill:none;stroke:#000000;stroke-miterlimit:10;" d="M471.519,333.023c-0.023,2.485-0.616,4.964-1.721,7.19"/>
			<path style="fill:none;stroke:#000000;stroke-miterlimit:10;" d="M390.728,270.266c11.823,0.353,23.498-2.368,35.013-5.071"/>
			<path style="fill:none;stroke:#000000;stroke-miterlimit:10;" d="M411.142,259.597c5.107,0.12,10.215,0.24,15.322,0.36"/>
			<path style="fill:none;stroke:#000000;stroke-miterlimit:10;" d="M492.67,304.889c-3.394-10.894-4.412-22.11-3.01-33.152"/>
		</g>
		<g>
			<path d="M491.192,111.766c0,0,8.824-5.377,12.056-5.29c3.232,0.086,6.87,11.294,6.214,23.102
				c-0.656,11.808-5.062,29.07-11.783,26.332c-6.72-2.737-12.191-16.367-12.943-22.487
				C483.984,127.302,487.849,120.21,491.192,111.766z"/>
			<path style="fill:#E9725B;" d="M348.317,142.041l-32.19,20.161l-67.55,1.164l2.603,25.503c0,0,43.803,9.002,59.271,9.003
				c12.998,0,24.771-1.837,34.811-5.901c10.04-4.064,42.809-18.615,42.809-18.615L348.317,142.041z"/>
			<g>
				<defs>
					<path id="XMLID_00000000200234171540842170000001293424789035526071_" d="M396.371,121.319
						c-7.956-0.506-15.903,1.562-23.204,4.764s-14.049,7.517-20.802,11.753c-8.037,5.042-23.926,15.149-23.926,15.149
						c8.745,14.852,18.896,25.771,33.838,34.361c15.445-5.343,28.513-11.238,47.624-13.544"/>
				</defs>
				<use xlink:href="#XMLID_00000000200234171540842170000001293424789035526071_"  style="overflow:visible;fill:#432572;"/>
				<clipPath id="XMLID_00000019670054052238992190000010400343531764617647_">
					<use xlink:href="#XMLID_00000000200234171540842170000001293424789035526071_"  style="overflow:visible;"/>
				</clipPath>
				
					<path style="clip-path:url(#XMLID_00000019670054052238992190000010400343531764617647_);fill:none;stroke:#FFE978;stroke-width:2;stroke-miterlimit:10;" d="
					M331.797,148.278c9.456,15.386,22.064,29.719,38.248,38.198"/>
			</g>
			<path style="fill:#E9725B;" d="M488.469,105.886c14.057,1.962,29.874,2.146,42.52,7.89c8.955,4.068,17.55,10.021,24.892,16.567
				c16.155,14.405,38.232,36.4,38.232,36.4l-22.195,16.943c0,0-47.655-30.788-57.185-33.961c-5.487-1.827-15.342-2.415-30.304-3.214
				"/>
			<path style="fill:#E9725B;" d="M569.189,184.407c2.732,1.975,6.017,8.503,7.597,12.941c1.321,3.709,2.528,6.45,7.248,7.112
				c2.241,0.314,4.947-0.676,4.947-0.676s3.823,4.003,6.175,4.092c1.822,0.068,3.665-1.429,4.811-3.668
				c1.536,1.058,2.787,1.441,4.09,0.694c1.303-0.747,2.123-3.7,1.476-5.056c2.086,1.491,4.802-1.398,3.921-5.44
				c0.967,0.304,2-0.516,2.292-1.488c0.292-0.971-0.057-4.092-0.331-5.068c-3.765-13.42-13.677-18.368-22.359-26.102"/>
			<path style="fill:#432572;" d="M507.481,210.871c-0.774-7.995-2.919-9.443-6.794-16.189c-1.758-3.06-10.563-17.36-12.211-20.734
				c-4.015-8.222-12.292-23.077-16.068-31.367c-1.583-3.476-2.193-7.451-3.718-11.016c-1.6-3.739-3.592-7.311-5.936-10.635
				c-1.031-1.462-2.131-2.877-3.295-4.236c-2.098-2.45-4.45-4.759-7.315-6.242c-3.203-1.657-6.857-2.187-10.445-2.547
				c-6.225-0.624-12.493-0.81-18.744-0.556c-4.395,0.179-8.411,3.295-12.269,5.408c-4.091,2.241-7.936,4.9-11.772,7.553
				c-4.521,3.128-9.043,6.256-13.564,9.383c-2.881,1.993-5.774,3.996-8.315,6.407c-6.897,6.546-10.729,15.615-14.131,24.494
				l1.036,4.797c5.553-0.438,10.019,4.256,13.577,8.541c5.236,6.306,10.475,12.615,15.445,19.136
				c2.314,3.037,4.78,6.092,6.893,9.262c1.812,2.718,1.123,7.178,1.253,10.385c0.02,0.484,0.041,0.976,0.193,1.436
				c0.618,1.874,2.985,2.282,4.925,2.641c17.779,3.292,30.542,5.227,63.72,2.464c4.467-0.062,25.466,3.284,29.632,4.896
				C503.968,220.879,508.001,216.239,507.481,210.871z"/>
			<path style="fill:#E9725B;" d="M382.629,120.398l6.441,10.487c0,0,13.115,14.466,19.196,13.766
				c6.081-0.701,12.783-34.597,12.783-34.597l-16.433-14.792L382.629,120.398z"/>
			<polygon style="fill:#FFE978;" points="423.837,165.977 417.758,167.834 405.059,144.035 411.137,142.178 			"/>
			<g>
				<defs>
					<path id="XMLID_00000080924876422589828960000013014420867598726841_" d="M455.98,155.982c3.62-2.136,7.402-1.934,12.635-1.904
						c8.732,0.05,19.871,1.206,29.064,1.832c-4.463-12.145-5.303-25.617-1.658-38.031c1.297-4.417,3.323-8.962,7.226-11.403
						c-13.526-1.257-31.435-3.816-45.007-4.392c-5.551-0.235-11.136-0.355-16.639,0.406c-7.063,0.977-13.87,3.387-20.936,4.338"/>
				</defs>
				<use xlink:href="#XMLID_00000080924876422589828960000013014420867598726841_"  style="overflow:visible;fill:#432572;"/>
				<clipPath id="XMLID_00000179616975353074152240000015969633476728888474_">
					<use xlink:href="#XMLID_00000080924876422589828960000013014420867598726841_"  style="overflow:visible;"/>
				</clipPath>
				
					<path style="clip-path:url(#XMLID_00000179616975353074152240000015969633476728888474_);fill:none;stroke:#FFE978;stroke-width:2;stroke-miterlimit:10;" d="
					M498.465,103.234c-6.673,5.562-8.601,15.94-9.32,24.186c-1.041,11.934,0.319,24.213,4.385,35.488"/>
			</g>
			<path style="fill:none;stroke:#000000;stroke-miterlimit:10;" d="M588.846,203.8c-1.004-0.887-2.041-1.736-3.108-2.545
				c-1.362-1.033-2.859-2.033-4.561-2.191"/>
			<path style="fill:none;stroke:#000000;stroke-miterlimit:10;" d="M599.857,204.42c-0.861-4.507-3.09-8.744-6.318-12.006"/>
			<path style="fill:none;stroke:#000000;stroke-miterlimit:10;" d="M605.685,200.224c-0.14-0.85-0.288-1.7-0.442-2.548
				c-0.553-3.032-1.276-6.206-3.363-8.474"/>
			<path style="fill:none;stroke:#000000;stroke-miterlimit:10;" d="M609.458,194.816c-0.206-3.502-0.69-6.921-2.747-9.762"/>
			<path style="fill:#7F52F8;" d="M556.973,173.289c-0.525,1.232-0.953,2.721-0.089,3.793c0.724,0.898,2.08,1.14,3.077,1.792
				c0.758,0.496,1.288,1.217,1.893,1.861c1.73,1.838,3.868,4.281,6.504,4.678c0.228,0.034,0.466,0.062,0.688,0.004
				c0.523-0.137,0.754-0.668,0.952-1.124c1.135-2.611,3.733-5.837,5.783-7.945c4.767-4.904,8.595-9.913,14.797-13.281
				c0.288-0.156,0.114-0.447,0.01-1.378c-0.079-0.71-1.247-1.492-1.859-1.974c-1.214-0.956-3.017-2.574-4.605-4.67
				c-1.099-1.45-2.583-3.587-4.655-3.961c-3.029-0.547-5.747,2.616-7.816,4.118c-4.215,3.061-7.852,6.765-10.709,10.906
				C559.373,168.382,558.038,170.788,556.973,173.289z"/>
			<path style="fill:none;stroke:#FFFFFF;stroke-width:2;stroke-miterlimit:10;" d="M562.825,181.631
				c6.327-10.095,12.787-17.358,22.951-24.451"/>
			<path style="fill:#FFE978;" d="M427.235,104.447l-10.049,1.096c-0.351,11.581-2.165,22.371-6.519,36.948
				c6.869-1.031,17.294-0.511,23.963,1.578C433.519,134.332,431.176,113.125,427.235,104.447z"/>
			<path style="fill:#FFE978;" d="M405.063,143.847c0,0-12.553-7.432-20.203-19.816l-5.452,1.458c0,0,4.778,22.244,15.341,33.555
				C399.148,149.178,405.063,143.847,405.063,143.847z"/>
			<path style="fill:none;stroke:#000000;stroke-miterlimit:10;" d="M478.635,155.019c0,0-13.785-1.11-15.908-0.883
				c-2.123,0.227-5.223,1.088-5.223,1.088"/>
			<path style="fill:none;stroke:#000000;stroke-miterlimit:10;" d="M382.68,179.892c0,0-9.045-10.913-11.709-12.352
				c-2.664-1.439-7.394-3.842-7.394-3.842"/>
			<line style="fill:none;stroke:#000000;stroke-miterlimit:10;" x1="408.834" y1="148.749" x2="412.87" y2="147.508"/>
			<line style="fill:none;stroke:#000000;stroke-miterlimit:10;" x1="412.426" y1="155.763" x2="416.463" y2="154.522"/>
			<line style="fill:none;stroke:#000000;stroke-miterlimit:10;" x1="416.019" y1="162.776" x2="420.055" y2="161.536"/>
			<path style="fill:none;stroke:#FFFFFF;stroke-width:2;stroke-miterlimit:10;" d="M423.991,104.852
				c4.67,12.503,6.193,37.878,6.193,37.878"/>
			<path style="fill:none;stroke:#FFFFFF;stroke-width:2;stroke-miterlimit:10;" d="M381.835,123.616
				c1.759,9.106,8.826,23.721,14.871,30.755"/>
			<path style="fill:none;stroke:#000000;stroke-miterlimit:10;" d="M470.667,217.791c8.201-1.968,16.774-2.378,25.126-1.199"/>
			<path style="fill:none;stroke:#000000;stroke-miterlimit:10;" d="M433.87,213.877c15.659-1.926,30.822-7.766,43.728-16.841"/>
			<g>
				<path style="fill:#E9725B;" d="M259.784,163.486c-0.868-0.278-1.737-0.557-2.605-0.835c-6.992-2.242-13.983-4.484-20.975-6.726
					c-1.344-0.431-2.726-0.867-4.136-0.789c-1.708,0.095-3.279,0.934-4.741,1.823c-1.821,1.107-3.577,2.323-5.255,3.638
					c-1.378,1.079-2.666,2.447-2.742,4.293c-0.051,1.248,0.545,1.518,0.924,2.708c0.878,2.754,1.837,3.832,2.391,6.669
					c0.216,1.106,1.002,3.315,1.282,4.406c0.456,1.779,2.378,2.885,3.423,4.395c1.087,1.57,0.221,3.24,1.931,3.572
					c1.936,0.376,3.823,1.479,5.765,1.876c3.014,0.617,8.767,1.332,11.648,2.41c0.8,0.299,1.607,0.594,2.448,0.741
					c3.841,0.673,6.301-0.21,11.152-1.563"/>
				<g>
					<g>
						
							<line style="fill:none;stroke:#E6EBFF;stroke-width:0.75;stroke-miterlimit:10;" x1="157.083" y1="67.509" x2="172.239" y2="103.757"/>
						
							<line style="fill:none;stroke:#E6EBFF;stroke-width:0.75;stroke-miterlimit:10;" x1="159.708" y1="57.174" x2="183.278" y2="113.546"/>
						
							<line style="fill:none;stroke:#E6EBFF;stroke-width:0.75;stroke-miterlimit:10;" x1="162.984" y1="48.393" x2="191.617" y2="116.876"/>
						
							<line style="fill:none;stroke:#E6EBFF;stroke-width:0.75;stroke-miterlimit:10;" x1="167.663" y1="42.97" x2="199.369" y2="118.801"/>
						
							<line style="fill:none;stroke:#E6EBFF;stroke-width:0.75;stroke-miterlimit:10;" x1="173.086" y1="39.327" x2="206.541" y2="119.34"/>
						
							<line style="fill:none;stroke:#E6EBFF;stroke-width:0.75;stroke-miterlimit:10;" x1="178.999" y1="36.855" x2="212.147" y2="116.135"/>
						
							<line style="fill:none;stroke:#E6EBFF;stroke-width:0.75;stroke-miterlimit:10;" x1="185.402" y1="35.554" x2="217.483" y2="112.282"/>
						
							<line style="fill:none;stroke:#E6EBFF;stroke-width:0.75;stroke-miterlimit:10;" x1="209.789" y1="44.037" x2="226.923" y2="85.017"/>
						
							<line style="fill:none;stroke:#E6EBFF;stroke-width:0.75;stroke-miterlimit:10;" x1="200.345" y1="38.065" x2="224.904" y2="96.801"/>
						
							<line style="fill:none;stroke:#E6EBFF;stroke-width:0.75;stroke-miterlimit:10;" x1="192.548" y1="36.032" x2="221.699" y2="105.75"/>
						
							<line style="fill:none;stroke:#E6EBFF;stroke-width:0.75;stroke-miterlimit:10;" x1="164.078" y1="46.481" x2="191.213" y2="35.135"/>
						
							<line style="fill:none;stroke:#E6EBFF;stroke-width:0.75;stroke-miterlimit:10;" x1="159.167" y1="55.203" x2="200.317" y2="37.998"/>
						
							<line style="fill:none;stroke:#E6EBFF;stroke-width:0.75;stroke-miterlimit:10;" x1="156.771" y1="62.873" x2="207.156" y2="41.806"/>
						
							<line style="fill:none;stroke:#E6EBFF;stroke-width:0.75;stroke-miterlimit:10;" x1="156.373" y1="69.709" x2="212.162" y2="46.382"/>
						
							<line style="fill:none;stroke:#E6EBFF;stroke-width:0.75;stroke-miterlimit:10;" x1="157.39" y1="75.952" x2="217.2" y2="50.944"/>
						
							<line style="fill:none;stroke:#E6EBFF;stroke-width:0.75;stroke-miterlimit:10;" x1="159.316" y1="81.815" x2="219.426" y2="56.682"/>
						
							<line style="fill:none;stroke:#E6EBFF;stroke-width:0.75;stroke-miterlimit:10;" x1="162.178" y1="87.287" x2="222.094" y2="62.236"/>
						
							<line style="fill:none;stroke:#E6EBFF;stroke-width:0.75;stroke-miterlimit:10;" x1="164.551" y1="92.964" x2="224.173" y2="68.035"/>
						
							<line style="fill:none;stroke:#E6EBFF;stroke-width:0.75;stroke-miterlimit:10;" x1="168.239" y1="98.09" x2="225.135" y2="74.301"/>
						
							<line style="fill:none;stroke:#E6EBFF;stroke-width:0.75;stroke-miterlimit:10;" x1="172" y1="103.186" x2="226.061" y2="80.583"/>
						
							<line style="fill:none;stroke:#E6EBFF;stroke-width:0.75;stroke-miterlimit:10;" x1="176.214" y1="108.093" x2="226.143" y2="87.217"/>
						
							<line style="fill:none;stroke:#E6EBFF;stroke-width:0.75;stroke-miterlimit:10;" x1="182.66" y1="112.067" x2="226.167" y2="93.876"/>
						
							<line style="fill:none;stroke:#E6EBFF;stroke-width:0.75;stroke-miterlimit:10;" x1="188.265" y1="116.392" x2="223.835" y2="101.52"/>
						
							<line style="fill:none;stroke:#E6EBFF;stroke-width:0.75;stroke-miterlimit:10;" x1="196.324" y1="119.691" x2="220.354" y2="109.644"/>
					</g>
					
						<rect x="226.515" y="141.189" transform="matrix(0.9226 -0.3858 0.3858 0.9226 -48.6171 103.0953)" style="fill:#D1402C;" width="12.176" height="63.024"/>
					<path style="fill:#D1402C;" d="M250.311,199.27c0.564,1.348-1.494,3.493-4.596,4.79s-6.074,1.255-6.637-0.093
						c-0.564-1.348,1.494-3.493,4.596-4.79C246.776,197.88,249.747,197.922,250.311,199.27z"/>
					
						<ellipse transform="matrix(0.9226 -0.3858 0.3858 0.9226 -38.3428 96.1556)" style="fill:#D1402C;" cx="220.447" cy="143.628" rx="6.088" ry="2.646"/>
					
						<rect x="215.566" y="139.354" transform="matrix(0.9226 -0.3858 0.3858 0.9226 -37.4972 95.5834)" style="fill:#432572;" width="7.762" height="3.764"/>
					<path style="fill:#432572;" d="M223.712,141.376c0.359,0.86-0.952,2.227-2.93,3.053c-1.978,0.827-3.872,0.8-4.231-0.059
						c-0.359-0.859,0.952-2.227,2.93-3.053C221.459,140.49,223.353,140.517,223.712,141.376z"/>
					<path style="fill:#432572;" d="M222.302,138.002c0.359,0.86-0.952,2.227-2.93,3.053c-1.977,0.827-3.872,0.8-4.231-0.059
						c-0.359-0.86,0.952-2.227,2.93-3.053C220.048,137.116,221.942,137.143,222.302,138.002z"/>
					<path style="fill:none;stroke:#D1402C;stroke-width:2.5;stroke-miterlimit:10;" d="M221.453,61.115
						c9.293,22.227,4.972,49.911-11.719,56.89c-16.691,6.979-39.432-9.391-48.725-31.618c-9.293-22.227-1.62-41.893,15.071-48.872
						S212.16,38.888,221.453,61.115z"/>
					<g>
						<path style="fill:none;stroke:#D1402C;stroke-width:2.5;stroke-miterlimit:10;" d="M194.462,118.677
							c0,0,7.355,1.377,14.666,9.731c5.555,6.347,7.896,11.801,7.896,11.801"/>
						<path style="fill:none;stroke:#D1402C;stroke-width:2.5;stroke-miterlimit:10;" d="M220.956,107.647
							c0,0-4.186,6.202-3.375,17.274c0.617,8.412,2.854,13.909,2.854,13.909"/>
					</g>
					<path style="fill:none;stroke:#A0372B;stroke-miterlimit:10;" d="M230.05,151.24c-0.749,1.555-1.715,3.006-2.861,4.297
						c-0.52,0.585-1.081,1.143-1.498,1.806c-0.986,1.567-0.31,3.352,0.993,4.553c0.731,0.674,1.615,1.155,2.441,1.709
						c1.445,0.968,2.766,2.221,3.438,3.825c1.199,2.862,0.124,6.096-0.285,9.172c-0.152,1.144-0.197,2.364,0.327,3.392
						c0.701,1.376,2.235,2.084,3.677,2.637c1.442,0.553,2.997,1.12,3.896,2.376c2.287,3.199-0.582,7.178-1.584,10.28
						c-0.592,1.831-0.753,3.961,0.298,5.573"/>
					<path style="fill:none;stroke:#000000;stroke-width:0.75;stroke-miterlimit:10;" d="M215.999,141.557
						c1.821,0.316,3.781-0.316,5.074-1.637c0.28-0.286,0.535-0.611,0.654-0.993"/>
					<path style="fill:none;stroke:#000000;stroke-width:0.75;stroke-miterlimit:10;" d="M215.387,146.831
						c3.974,0.813,8.354-0.932,10.68-4.255"/>
				</g>
				<g>
					<path style="fill:#E9725B;" d="M220.345,162.031c-1.153,0.731-1.849,2.417-2.036,3.769c-0.222,1.608,0.583,2.979,1.896,3.938
						c-1.009,0.846-1.213,2.96-0.79,4.051c0.423,1.091,1.301,1.998,2.378,2.456c0.07,0.03-0.231,2.076-0.229,2.293
						c0.025,2.405,2.298,3.433,4.171,4.299c-0.418,1.494,0.454,3.126,1.74,3.995c2.441,1.65,5.328,1.095,7.881,0.07
						c1.998-0.802,4.274-1.489,6.001-2.809c1.133-0.866,2.039-2.137,2.13-3.56c0.049-0.772-0.209-1.64-0.889-2.008
						c0.38-0.796,0.695-1.646,0.714-2.528c0.018-0.882-0.302-1.807-0.999-2.348c-0.58-0.45-1.35-0.588-2.083-0.559
						c0.736-1.005,0.948-2.374,0.549-3.554c-0.399-1.18-1.396-2.141-2.591-2.494c0.528-1.042,0.603-2.14-0.018-3.14
						c-0.669-1.076-2.082-1.68-3.307-1.304c-1.454,0.447-2.852,0.968-4.366,1.273c-3.265,0.658-6.624,0.853-9.943,0.571"/>
					<path style="fill:none;stroke:#000000;stroke-miterlimit:10;" d="M220.165,169.698c1.344,0.616,2.852,0.754,4.328,0.827
						c1.745,0.087,3.503,0.095,5.232-0.158c3.029-0.443,5.884-1.736,8.356-3.52c0.503-0.363,0.542-1.083,0.533-1.703
						c-0.003-0.202-0.006-0.409-0.074-0.6c-0.07-0.196-0.202-0.363-0.336-0.522c-0.694-0.827-1.544-1.61-2.603-1.817"/>
					<path style="fill:none;stroke:#000000;stroke-miterlimit:10;" d="M221.605,176.326c3.072,0.764,6.314,0.822,9.416,0.197
						c1.836-0.37,3.641-0.9,5.393-1.563c1.113-0.421,2.275-0.866,3.324-1.428c0.57-0.306,0.651-0.688,0.911-1.221
						c0.172-0.352,0.345-0.708,0.438-1.089c0.22-0.904-0.041-1.881-0.565-2.649c-0.524-0.768-1.288-1.346-2.106-1.789"/>
					<path style="fill:none;stroke:#000000;stroke-miterlimit:10;" d="M225.4,182.739c2.493,0.424,5.06,0.283,7.542-0.2
						c2.015-0.393,4.021-0.91,5.907-1.734c1.548-0.677,3.524-1.342,4.141-3.108c0.187-0.537,0.2-1.116,0.212-1.684
						c0.009-0.457,0.015-0.929-0.159-1.351c-0.204-0.493-0.638-0.862-1.116-1.097c-0.479-0.235-1.006-0.351-1.527-0.465"/>
					<path style="fill:none;stroke:#000000;stroke-miterlimit:10;" d="M243.196,181.966c0.903-1.361,0.327-2.858-0.352-4.157"/>
				</g>
				<path style="fill:#E9725B;stroke:#000000;stroke-miterlimit:10;" d="M236.883,157.3c-3.039,1.273-6.969,2.743-8.851,5.629
					c-1.716,2.631-1.731,6.796-2.298,9.829c-0.129,0.689-0.243,1.458,0.141,2.045c0.749,1.144,3.214,0.907,4.276,0.047
					c1.54-1.246,2.079-3.22,2.782-5.073c0.179-0.472,0.374-1.01,0.838-1.21c0.264-0.114,0.565-0.091,0.852-0.066
					c1.672,0.147,3.343,0.295,5.015,0.442c1.824,3.44,5.176,7.052,8.553,8.99c3.377,1.939,4.153,1.326,7.933,2.261"/>
			</g>
			<path style="fill:none;stroke:#000000;stroke-miterlimit:10;" d="M316.26,162.383c2.228,1.807,4.048,4.113,5.288,6.7"/>
			<path style="fill:none;stroke:#000000;stroke-miterlimit:10;" d="M514.831,149.564c-0.305-2.4-0.313-4.838-0.023-7.24"/>
		</g>
		<g>
			<path style="fill:#E9725B;" d="M400.058,94.469c-0.805-6.384-3.481-14.17-9.135-17.365c-5.481-3.097-12.539-3.208-18.619-2.15
				c-5.197,0.904-10.223,3.384-12.549,8.369c-1.446,3.099-1.061,6.809-0.312,10.052c1.761,7.623,3.547,15.461,6.408,22.761
				c1.926,4.915,5.267,9.214,10.715,10.145c9.345,1.597,16.68-5.231,20.501-12.972C400.162,107.037,400.952,101.562,400.058,94.469z
				"/>
			<path style="fill:#38121F;" d="M408.757,82.177c-0.06-0.133-0.118-0.268-0.174-0.403c-0.66-1.603-0.858-3.343-1.458-4.967
				c-0.728-1.973-1.657-3.888-2.927-5.573c-1.504-1.994-3.814-3.687-6.575-4.106c-2.374-0.36-4.779,0.239-7.075,0.833l0.542,5.942
				c0.188,2.741,0.762,5.467,1.705,8.101c0.612,1.71,1.475,3.488,3.228,4.505c0.374,0.217,0.785,0.397,1.106,0.668
				c0.73,0.616,0.848,1.552,1.077,2.397c0.541,1.998,1.656,4.083,3.145,5.527c1.447,1.405,2.546,3.134,4.091,4.489
				c0.792,0.695,2.357,1.962,3.491,1.33c0.308-0.172,0.543-0.451,0.733-0.749c1.195-1.873,1.594-4.762,1.828-6.938
				c0.249-2.31,0.206-4.783-0.701-6.958C410.206,84.866,409.382,83.57,408.757,82.177z"/>
			<g>
				<path style="fill:#E9725B;" d="M396.243,95.512c1.103-1.846,3.147-3.095,5.293-3.235c2.146-0.14,4.334,0.833,5.668,2.52
					c1.195,1.512,1.684,3.494,1.668,5.422c-0.028,3.406-1.722,6.889-4.702,8.537c-2.98,1.648-6.122,1.107-7.573-2.458"/>
				<path style="fill:none;stroke:#000000;stroke-miterlimit:10;" d="M408.933,100.921c-1.377,7.095-4.896,8.326-7.038,8.613
					c-2.446,0.328-4.375-0.965-5.299-3.236"/>
				<path style="fill:none;stroke:#000000;stroke-miterlimit:10;" d="M396.243,95.512c0.513-0.859,2.491-3.302,7.146-2.981"/>
				<path style="fill:none;stroke:#000000;stroke-miterlimit:10;" d="M406.116,99.035c-0.507-1.131-1.468-2.069-2.642-2.468
					c-1.213-0.413-2.542-0.119-3.529,0.681c-1.004,0.814-1.715,2.077-2.093,3.301"/>
				<path style="fill:none;stroke:#000000;stroke-miterlimit:10;" d="M402.197,96.639c0.807,1.204,1.418,2.591,1.452,4.06
					c0.036,1.565-0.632,3.169-1.418,4.492"/>
			</g>
			<path style="fill:#38121F;" d="M392.49,63.033c-4.16-1.879-8.921-2.396-13.388-1.456c-4.682,0.986-8.839,3.473-12.829,6.01
				c-2.006,1.276-3.994,2.583-6.054,3.773c-1.914,1.105-6.433,1.429-7.028,4.005c-0.305,1.321,2.491,1.999,3.364,2.195
				c-0.327,0.652-0.905,1.146-1.278,1.773c-0.898,1.51-0.284,3.713,1.265,4.542c0.789,0.422,1.712,0.501,2.606,0.519
				c3.953,0.079,7.923-0.903,11.382-2.817c0.179-0.099,0.371-0.204,0.575-0.185c0.425,0.039,0.85,0.592,1.217,0.805
				c0.606,0.352,1.352,0.569,2.022,0.76c1.765,0.502,3.621,0.59,5.444,0.456c3.127-0.23,6.245-1.225,8.795-3.078
				c3.119-2.267,3.97-5.376,5.722-8.627l3.406-4.548C396.501,65.262,394.54,63.959,392.49,63.033z"/>
			<path style="fill:none;stroke:#000000;stroke-miterlimit:10;" d="M370.162,98.404c0,0,1.518,5.835,1.046,10.709
				c-0.129,1.335,0.253,2.803,1.546,3.309c1.44,0.564,3.885-0.259,5.284-0.907"/>
			<path style="fill:#FFFFFF;" d="M384.749,111.698l-7.776,3.518c0,0,2.174,2.778,4.823,1.964
				C384.444,116.365,385.518,114.578,384.749,111.698z"/>
			<path style="fill:none;stroke:#000000;stroke-miterlimit:10;" d="M385.848,125.64c5.053-2.622,9.074-7.566,11.577-12.679"/>
			<path style="fill:none;stroke:#38121F;stroke-miterlimit:10;" d="M352.046,76.895c2.783,0.943,5.881,0.929,8.656-0.039"/>
			<path style="fill:none;stroke:#38121F;stroke-miterlimit:10;" d="M353.419,69.744c4.32,1.238,8.98-0.141,13.043-2.016
				c4.063-1.875,7.936-4.277,12.329-5.251c3.083-0.684,6.343-0.626,9.398,0.168"/>
			<path style="fill:none;stroke:#68374A;stroke-miterlimit:10;" d="M371.31,80.985c2.421-1.257,4.912-2.569,6.645-4.676"/>
			<path style="fill:none;stroke:#68374A;stroke-miterlimit:10;" d="M391.511,76.958c2.205-2.528,4.089-5.336,5.592-8.334"/>
			<path style="fill:none;stroke:#68374A;stroke-miterlimit:10;" d="M358.253,80.973c1.514,0.023,2.987-0.464,4.401-1.006
				c5.179-1.981,10.047-4.771,14.374-8.238"/>
			<path style="fill:none;stroke:#68374A;stroke-miterlimit:10;" d="M379.31,81.899c4.746-2.171,8.814-5.797,11.513-10.264"/>
			<g>
				<path style="fill:#14131C;" d="M381.565,80.809c-1.48,0.359-21.285,5.506-22.948,6.899c-1.663,1.394-5.581,6.84-5.118,10.137
					s5.664,7.988,9.924,8.96c4.26,0.972,23.546-1.188,25.529-2.616c1.328-0.956,5.634-1.806,5.773-7.041
					c0.103-3.861-1.948-8.855-3.054-11.628C389.535,80.166,386.309,79.659,381.565,80.809z"/>
				<path style="fill:#46415B;" d="M378.474,85.527c-1.48,0.359-21.285,5.506-22.948,6.899c-1.663,1.394-2.354,4.389-1.892,7.686
					s2.438,10.438,6.698,11.411c4.26,0.972,26.637-5.906,28.62-7.334c2.691-1.937,1.811-8.478-0.372-13.951
					C386.444,84.884,383.218,84.376,378.474,85.527z"/>
				<path style="fill:#B5F4E1;" d="M361.662,108.612c-0.484,0.018-0.667-0.014-0.674-0.016c-1.903-0.435-3.841-5.04-4.382-8.9
					c-0.368-2.62,0.237-4.322,0.756-4.882c2.437-1.242,18.286-5.514,21.82-6.371c1.052-0.255,1.91-0.392,2.622-0.418
					c1.487-0.054,2.726,0.157,3.991,3.326c2.194,5.499,2.017,9.033,0.825,10.551C385.427,103.421,367.43,108.402,361.662,108.612
					C361.662,108.612,361.662,108.612,361.662,108.612z"/>
				<g>
					<defs>
						<path id="SVGID_1_" d="M361.662,108.612c-0.484,0.018-0.667-0.014-0.674-0.016c-1.903-0.435-3.841-5.04-4.382-8.9
							c-0.368-2.62,0.237-4.322,0.756-4.882c2.437-1.242,18.286-5.514,21.82-6.371c1.052-0.255,1.91-0.392,2.622-0.418
							c1.487-0.054,2.726,0.157,3.991,3.326c2.194,5.499,2.017,9.033,0.825,10.551C385.427,103.421,367.43,108.402,361.662,108.612
							C361.662,108.612,361.662,108.612,361.662,108.612z"/>
					</defs>
					<clipPath id="SVGID_00000088118348338202522150000015874641990485508784_">
						<use xlink:href="#SVGID_1_"  style="overflow:visible;"/>
					</clipPath>
					<g style="clip-path:url(#SVGID_00000088118348338202522150000015874641990485508784_);">
						<g style="opacity:0.75;">
							
								<rect x="338.815" y="98.895" transform="matrix(0.2723 -0.9622 0.9622 0.2723 165.6961 420.8838)" style="fill:#FFFFFF;" width="44.581" height="4"/>
						</g>
						<g style="opacity:0.75;">
							
								<rect x="358.266" y="98.258" transform="matrix(0.2723 -0.9622 0.9622 0.2723 180.4716 439.1404)" style="fill:#FFFFFF;" width="44.582" height="4"/>
						</g>
						<g style="opacity:0.75;">
							
								<rect x="348.01" y="97.743" transform="matrix(0.2724 -0.9622 0.9622 0.2724 171.5255 430.3187)" style="fill:#FFFFFF;" width="44.581" height="7.999"/>
						</g>
						<path style="fill:none;stroke:#000000;stroke-miterlimit:10;" d="M355.91,99.901c0,0,0.082-1.481,4.292-2.953
							c4.21-1.472,17.729-4.827,20.059-5.333c3.431-0.745,6.218-0.752,6.218-0.752"/>
					</g>
				</g>
				<path style="fill:#14131C;" d="M406.979,75.696c-3.864,4.949-9.873,8.698-16.667,10.399l2.749,6.688
					c6.797-1.834,12.813-5.86,16.685-11.167L406.979,75.696z"/>
				<path style="fill:none;stroke:#646072;stroke-miterlimit:10;" d="M391.819,85.868c0.839,2.154,1.662,4.932,2.147,6.589"/>
			</g>
			<g>
				<path style="opacity:0.25;fill:#FFFFFF;" d="M385.794,91.35c-1.264-3.169-2.503-3.38-3.99-3.326
					c-0.712,0.026-1.57,0.163-2.622,0.418c-3.533,0.856-19.366,5.125-21.816,6.369c-4.072,2.068-8.33,3.949-12.295,6.189
					c-6.28,3.548-9.049,9.795-14.256,14.743c-6.951,6.606-17.042,8.396-26.499,9.983c-47.083,7.901-95.471,18.827-133.549,47.625
					c-14.642,11.073-27.786,25.207-33.42,42.679c-5.634,17.471-2.287,38.647,11.581,50.676
					c12.558,10.893,29.656,14.931,45.943,12.603c17.95-2.566,30.943-14.773,46.007-23.531c14.197-8.255,31.447-8.49,47.578-11.573
					c12.905-2.467,25.643-6.999,36.057-15.01c10.414-8.011,18.323-19.795,19.836-32.847c0.819-7.06-0.215-14.192-0.199-21.299
					c0.016-7.107,1.272-14.623,5.893-20.023c3.063-3.58,7.404-5.983,10.075-9.865c6.074-8.827,8.527-19.222,15.149-28.076
					c3.781-5.056,7.456-10.217,11.353-15.183C387.811,100.383,387.988,96.85,385.794,91.35z"/>
			</g>
			<path style="opacity:0.25;fill:#FFFFFF;" d="M230.969,297.086c2.846,4.755,8.506,7.135,13.994,7.905
				c3.339,0.469,6.799,0.448,10.016-0.561c3.217-1.009,6.179-3.081,7.823-6.025c0.956-1.712,1.441-3.651,1.707-5.594
				c1.577-11.514-8.208-20.056-19.514-20.087C233.995,272.694,225.288,287.595,230.969,297.086z"/>
			<path style="opacity:0.25;fill:#FFFFFF;" d="M274.552,106.528c-7.11,3.175-14.4,6.97-18.679,13.476
				c-4.279,6.506-4.265,16.457,2.007,21.074c5.878,4.327,13.503,2.716,20.242,2.539c9.57-0.251,22.698,0.838,28.213-8.816
				c3.486-6.103,3.969-14.004,0.608-20.177C300.751,103.25,285.076,101.828,274.552,106.528z"/>
		</g>
		<g>
			<path style="fill:#7F52F8;" d="M208.721,214.57c4.25,8.61,0.715,19.035-7.895,23.285c-8.61,4.25-19.035,0.715-23.285-7.895
				c-4.25-8.61-0.715-19.035,7.895-23.285C194.046,202.425,204.471,205.96,208.721,214.57z"/>
			<path style="fill:none;stroke:#000000;stroke-miterlimit:10;" d="M176.908,216.567c4.646,0.953,8.783,4.133,10.898,8.378
				c2.115,4.245,2.163,9.463,0.125,13.746"/>
			<path style="fill:none;stroke:#000000;stroke-miterlimit:10;" d="M194.968,205.485c0.092,4.895,1.847,10.683,5.778,14.683
				c2.547,2.592,5.812,4.312,9.114,4.802"/>
			
				<line style="fill:none;stroke:#7F52F8;stroke-width:3;stroke-miterlimit:10;" x1="178.365" y1="224.97" x2="168.413" y2="224.97"/>
			
				<line style="fill:none;stroke:#7F52F8;stroke-width:3;stroke-miterlimit:10;" x1="165.46" y1="218.004" x2="155.508" y2="218.004"/>
			
				<line style="fill:none;stroke:#7F52F8;stroke-width:3;stroke-miterlimit:10;" x1="214.366" y1="218.004" x2="207.37" y2="218.004"/>
			
				<line style="fill:none;stroke:#7F52F8;stroke-width:3;stroke-miterlimit:10;" x1="155.508" y1="238.691" x2="148.512" y2="238.691"/>
			
				<line style="fill:none;stroke:#BDCDF4;stroke-width:3;stroke-miterlimit:10;" x1="175.952" y1="224.97" x2="180.956" y2="224.97"/>
			
				<line style="fill:none;stroke:#BDCDF4;stroke-width:3;stroke-miterlimit:10;" x1="189.427" y1="210.547" x2="200.17" y2="210.547"/>
			
				<line style="fill:none;stroke:#BDCDF4;stroke-width:3;stroke-miterlimit:10;" x1="205.189" y1="218.004" x2="209.86" y2="218.004"/>
		</g>
	</g>
	<g>
		<g>
			
				<ellipse transform="matrix(0.3296 -0.9441 0.9441 0.3296 81.863 792.9186)" style="fill:none;stroke:#B5F4E1;stroke-width:1.5;stroke-miterlimit:10;" cx="599.232" cy="338.819" rx="37.05" ry="37.05"/>
			<path style="fill:none;stroke:#B5F4E1;stroke-width:1.5;stroke-miterlimit:10;" d="M582.429,372.188
				c5.133-4.093,11.585-6.505,18.144-6.784c6.559-0.278,13.192,1.578,18.654,5.222"/>
			<path style="fill:none;stroke:#B5F4E1;stroke-width:1.5;stroke-miterlimit:10;" d="M576.741,368.259
				c2.002-3.702,4.268-5.992,7.972-7.992c5.232-2.825,11.375-3.391,17.321-3.404c7.03-0.015,14.662,0.839,21.388-1.688
				c7.299-2.742,11.765-9.632,12.857-17.166"/>
			<path style="fill:none;stroke:#B5F4E1;stroke-width:1.5;stroke-miterlimit:10;" d="M571.891,363.821
				c-0.38-3.225,0.364-6.339,2.263-8.973c4.098-5.685,11.423-7.987,18.02-9.189c6.03-1.099,12.278-1.646,17.827-4.249
				c10.928-5.126,17.77-13.681,13.494-30.59"/>
			<path style="fill:none;stroke:#B5F4E1;stroke-width:1.5;stroke-miterlimit:10;" d="M600.951,301.682
				c6.056,7.106,5.09,17.087-2.212,22.774c-6.252,4.869-14.438,6.159-20.66,11.178c-8.156,6.58-10.826,12.605-10.119,23.061"/>
			<path style="fill:none;stroke:#B5F4E1;stroke-width:1.5;stroke-miterlimit:10;" d="M577.397,308.686
				c2.35,3.743,1.285,8.525-0.823,12.101c-1.882,3.194-4.71,5.667-6.843,8.675c-2.283,3.219-3.96,6.874-4.921,10.707
				c-0.869,3.469-0.812,8.308-0.214,11.829"/>
		</g>
		<polygon style="fill:#F9CAAA;" points="287.054,349.085 289.135,367.699 302.693,354.777 292.322,370.373 311.014,369.189 
			293.044,374.47 308.124,385.579 290.964,378.073 295.375,396.276 287.054,379.496 278.733,396.276 283.145,378.073 
			265.985,385.579 281.064,374.47 263.095,369.189 281.787,370.373 271.416,354.777 284.974,367.699 		"/>
		<polygon style="fill:#B5F4E1;" points="251.703,325.168 247.625,334.493 257.516,332.096 248.398,336.618 257.516,341.139 
			247.625,338.742 251.703,348.067 245.667,339.873 242.797,349.638 243.44,339.48 234.965,345.116 241.987,337.748 
			231.872,336.618 241.987,335.487 234.965,328.12 243.44,333.755 242.797,323.598 245.667,333.363 		"/>
		<polygon style="fill:#B5F4E1;" points="485.644,49.669 481.566,58.994 491.457,56.597 482.339,61.118 491.457,65.64 
			481.566,63.243 485.644,72.568 479.608,64.373 476.738,74.138 477.381,63.981 468.906,69.617 475.928,62.249 465.813,61.118 
			475.928,59.988 468.906,52.62 477.381,58.256 476.738,48.099 479.608,57.864 		"/>
		<polygon style="fill:#B5F4E1;" points="665.521,417.076 661.442,426.401 671.334,424.004 662.216,428.526 671.334,433.047 
			661.442,430.65 665.521,439.975 659.484,431.781 656.615,441.546 657.258,431.388 648.783,437.024 655.805,429.656 
			645.69,428.526 655.805,427.395 648.783,420.028 657.258,425.663 656.615,415.506 659.484,425.271 		"/>
		<polygon style="fill:#FFE978;" points="682.474,279.879 683.643,290.337 691.26,283.077 685.433,291.84 695.935,291.174 
			685.839,294.141 694.312,300.382 684.671,296.166 687.149,306.392 682.474,296.965 677.799,306.392 680.278,296.166 
			670.637,300.382 679.109,294.141 669.013,291.174 679.515,291.84 673.688,283.077 681.305,290.337 		"/>
		<polygon style="fill:#FFE978;" points="70.5,308.319 66.443,316.01 75.021,314.585 66.969,317.868 74.456,322.29 66.177,319.63 
			69.07,327.83 64.438,320.471 61.383,328.612 62.566,319.997 54.992,324.27 61.436,318.431 52.888,316.836 61.577,316.504 
			56.054,309.788 62.923,315.12 63.01,306.424 64.845,314.924 		"/>
		<g>
			<path style="fill:none;stroke:#FFFFFF;stroke-width:2;stroke-linejoin:round;stroke-miterlimit:10;" d="M156.496,162.638
				c-3.531,7.751-32.846,1.984-65.478-12.882c-32.631-14.866-56.221-33.2-52.69-40.951c3.531-7.751,32.846-1.984,65.477,12.882
				S160.027,154.887,156.496,162.638z"/>
			
				<ellipse transform="matrix(0.9874 -0.1584 0.1584 0.9874 -19.9473 17.2552)" style="fill:#EBB0FF;" cx="98.294" cy="133.786" rx="34.334" ry="34.334"/>
			<path style="fill:none;stroke:#9A8AED;stroke-width:1.5;stroke-miterlimit:10;" d="M66.618,148.665
				c2.604-2.051,6.243-2.151,9.179-3.688c4.384-2.294,6.585-8.053,4.85-12.686c-1.308-3.491-4.359-5.965-6.939-8.655
				c-2.581-2.69-3.897-6.416-3.167-10.072"/>
			<path style="fill:none;stroke:#9A8AED;stroke-width:1.5;stroke-miterlimit:10;" d="M81.384,104.263
				c-1.955,7.449,0.623,15.9,6.401,20.99c2.659,2.342,5.981,4.086,7.809,7.121c1.076,1.786,1.53,3.864,2.176,5.846
				c0.682,2.091,1.593,4.107,2.711,6c1.53,2.59,4.043,5.208,7.02,4.776c1.946-0.282,3.51-1.883,4.233-3.711s0.736-3.857,0.588-5.817
				c-0.603-8.001-3.669-15.583-6.727-23.001c-0.484-1.175-0.976-2.382-1.009-3.652c-0.033-1.27,0.494-2.636,1.609-3.245
				c0.637-0.348,1.386-0.414,2.08-0.628c2.518-0.776,4.094-3.787,3.297-6.298"/>
			<path style="fill:none;stroke:#9A8AED;stroke-width:1.5;stroke-miterlimit:10;" d="M125.553,112.465
				c-2.64,3.106-5.373,6.395-6.185,10.389c-1.539,7.566,4.233,15.242,2.569,22.782c-0.858,3.889-3.664,7.159-7.063,9.233
				c-3.399,2.074-7.355,3.065-11.302,3.596c-5.854,0.787-12.37,0.845-16.715,4.846c-0.831,0.765-1.595,1.824-1.375,2.932"/>
			<path style="fill:none;stroke:#FFFFFF;stroke-width:2;stroke-linejoin:round;stroke-miterlimit:10;" d="M156.496,162.638
				c-3.531,7.751-32.846,1.984-65.478-12.882c-32.631-14.866-56.221-33.2-52.69-40.951"/>
		</g>
		<g>
			
				<ellipse transform="matrix(0.8499 -0.527 0.527 0.8499 -18.9255 381.8946)" style="fill:none;stroke:#D1402C;stroke-width:1.5;stroke-miterlimit:10;" cx="660.838" cy="224.165" rx="36.058" ry="8.565"/>
			
				<ellipse transform="matrix(0.2255 -0.9743 0.9743 0.2255 293.9525 816.0671)" style="fill:#F9CAAA;" cx="660.215" cy="223.162" rx="19.068" ry="19.068"/>
			<path style="fill:none;stroke:#D1402C;stroke-width:1.5;stroke-miterlimit:10;" d="M691.483,205.163
				c2.493,4.02-9.207,15.787-26.132,26.281s-32.666,15.743-35.159,11.722"/>
		</g>
		<circle style="opacity:0.65;fill:#9A8AED;" cx="564.343" cy="231.669" r="11.106"/>
		<circle style="fill:#FFE978;" cx="575.012" cy="413.732" r="2.913"/>
		<circle style="fill:#FFE978;" cx="546.459" cy="265.195" r="2.913"/>
		<circle style="fill:#FFE978;" cx="337.823" cy="228.055" r="2.913"/>
		<path style="fill:#B5F4E1;" d="M274.035,69.709c0,1.609-1.304,2.913-2.913,2.913c-1.609,0-2.913-1.304-2.913-2.913
			c0-1.609,1.304-2.913,2.913-2.913C272.73,66.796,274.035,68.1,274.035,69.709z"/>
		<circle style="fill:#B5F4E1;" cx="669.916" cy="324.104" r="2.913"/>
		<circle style="opacity:0.65;fill:#9A8AED;" cx="164.661" cy="307.478" r="2.913"/>
		<path style="fill:#FFFFFF;" d="M200.305,400.605c2.123-5.853,0.291-13.033-4.578-16.975c-5.343-4.325-13.749-4.277-19.042,0.109
			c1.079-7.051,0.138-11.26-0.614-16.826c-0.619-4.585-3.23-8.743-6.469-12.257c-8.023-8.702-22.954-6.151-32.04-1.129
			c-20.297,11.219-30.555,29.545-30.555,29.545s-2.643-12.049-20.312-4.677c-9.449,3.942-21.316,12.296-29.246,22.211H200.305z"/>
		<path style="fill:#FFFFFF;" d="M671.207,90.557c5.392-17.221-9.836-28.273-23.278-28.412c-10.723-0.111-21.654,1.745-30.857,8.126
			c1.447-9.003,0.614-16.094-4.993-20.043c-5.607-3.95-15.523-3.502-22.096-1.544c-14.667,4.368-34.315,14.125-57.38,41.873
			C532.641,90.557,671.207,90.557,671.207,90.557z"/>
		
			<ellipse transform="matrix(0.3404 -0.9403 0.9403 0.3404 -210.3566 339.8867)" style="fill:none;stroke:#B5F4E1;stroke-width:1.5;stroke-miterlimit:10;" cx="137.088" cy="319.883" rx="9.023" ry="9.023"/>
		
			<line style="fill:none;stroke:#7F52F8;stroke-width:1.5;stroke-miterlimit:10;" x1="655.635" y1="105.507" x2="697.183" y2="105.507"/>
		
			<line style="fill:none;stroke:#7F52F8;stroke-width:1.5;stroke-miterlimit:10;" x1="242.321" y1="36.855" x2="283.869" y2="36.855"/>
		
			<line style="fill:none;stroke:#7F52F8;stroke-width:1.5;stroke-miterlimit:10;" x1="39.6" y1="421.849" x2="81.147" y2="421.849"/>
		
			<line style="fill:none;stroke:#7F52F8;stroke-width:1.5;stroke-miterlimit:10;" x1="196.709" y1="363.821" x2="215.387" y2="363.821"/>
		
			<line style="fill:none;stroke:#7F52F8;stroke-width:1.5;stroke-miterlimit:10;" x1="214.366" y1="370.82" x2="227.087" y2="370.82"/>
		
			<line style="fill:none;stroke:#7F52F8;stroke-width:1.5;stroke-miterlimit:10;" x1="614.715" y1="105.507" x2="633.214" y2="105.507"/>
		
			<line style="fill:none;stroke:#7F52F8;stroke-width:1.5;stroke-miterlimit:10;" x1="691.182" y1="338.819" x2="709.681" y2="338.819"/>
		
			<line style="fill:none;stroke:#7F52F8;stroke-width:1.5;stroke-miterlimit:10;" x1="659.763" y1="372.681" x2="690.987" y2="372.681"/>
		
			<line style="fill:none;stroke:#7F52F8;stroke-width:1.5;stroke-miterlimit:10;" x1="686.137" y1="363.821" x2="697.183" y2="363.821"/>
		
			<line style="fill:none;stroke:#7F52F8;stroke-width:1.5;stroke-miterlimit:10;" x1="85.222" y1="191.898" x2="107.531" y2="191.898"/>
		
			<line style="fill:none;stroke:#7F52F8;stroke-width:1.5;stroke-miterlimit:10;" x1="520.903" y1="282.077" x2="541.185" y2="282.077"/>
		<rect x="283.964" y="46.382" style="fill:#FFE978;" width="34.361" height="5.958"/>
		<rect x="105.276" y="414.858" style="fill:#FFE978;" width="20.539" height="5.958"/>
		<rect x="635.853" y="126.464" style="fill:#FFE978;" width="20.538" height="5.958"/>
	</g>
</g>
</svg>
